<svg width="1101" height="639" viewBox="0 0 1101 639" fill="none" xmlns="http://www.w3.org/2000/svg">
<path d="M155.381 105.353C146.347 100.752 89.6982 142.666 84.9284 146.842C63.9673 165.172 35.5096 192.562 59.3906 213.728C83.705 235.288 123.557 242.691 153.406 259.73C184.622 277.539 156.788 310.268 142.115 329.437C105.226 377.643 73.0874 429.075 45.5926 479.51C38.2461 492.97 -14.8147 631.412 5.93095 632.593C-6.25952 631.895 48.1155 511.969 53.0141 504.156C87.6985 449.058 135.952 397.387 185.551 346.659C205.587 326.169 226.265 299.847 220.346 275.317C214.277 250.198 174.26 236.98 140.747 225.19C96.4968 209.619 72.2424 200.994 95.6487 169.525C100.782 162.651 159.746 107.554 155.381 105.353Z" stroke="white" stroke-width="2"/>
<path d="M116.866 40.4249C118.11 39.8873 118.777 37.3868 119.488 34.6905C120.2 31.9942 120.956 29.1458 122.378 27.9123C126.25 24.5583 129.676 23.2922 133.27 23.1812C136.863 23.0702 140.647 24.0925 145.191 25.2932C150.018 26.5608 154.056 28.8039 158.204 30.9606C162.351 33.1172 166.629 35.231 171.915 36.2398C177.071 37.226 181.665 37.2294 186.239 36.993C190.813 36.7785 195.367 36.3243 200.44 36.3738C208.105 36.4592 216.965 36.9866 223.941 39.5507C230.917 42.1147 236.009 46.7371 236.116 55.056C236.238 64.5072 230.056 68.0882 222.812 70.727C215.568 73.3659 207.285 75.0191 203.269 80.6153C202.918 81.0924 212.656 88.375 222.893 95.8346C233.152 103.294 243.933 110.953 245.69 112.16C255.452 118.811 265.635 124.246 276.566 128.464C287.474 132.683 299.107 135.686 311.727 137.475C323.477 139.129 332.942 140.575 345.581 138.88C352.467 137.959 365.106 136.134 376.232 128.551C381.193 125.181 385.244 121.044 388.353 117.904C395.842 110.323 398.898 105.049 399.636 105.336C400.505 105.689 397.326 113.75 391.599 121.645C389.559 124.443 385.236 130.408 378.284 135.531C365.581 144.868 350.546 146.681 338.17 148.159C320.15 150.325 305.133 148.763 295.669 147.274C277.197 144.407 259.056 140.89 222.045 119.544C199.165 106.353 177.013 91.5992 152.718 82.4732C142.657 78.6947 112.294 68.1202 86.4322 54.783C60.5704 41.4458 39.1876 25.3458 47.0643 10.5162C56.019 -6.3545 68.8585 3.10086 81.7673 15.8011C94.6544 28.5013 107.633 44.403 116.866 40.4249Z" stroke="white" stroke-width="2"/>
<path d="M390.361 276.81C393.845 276.829 396.715 277.564 398.928 279.035C401.141 280.506 402.852 282.17 403.996 284.005C405.14 285.863 405.87 287.805 406.142 289.831C406.414 291.88 406.448 293.578 406.267 294.927C405.463 298.603 403.695 303.253 400.943 308.878C398.19 314.503 394.999 320.691 391.369 327.466C387.739 334.24 383.758 341.448 379.448 349.089C375.139 356.73 371.026 364.242 367.088 371.581C363.172 378.941 359.627 386.108 356.497 393.059C353.345 400.032 351.09 406.225 349.688 411.662C348.51 416.119 348.627 418.602 350.083 419.089C351.539 419.576 354.202 418.48 358.115 415.78C364.933 411.353 372.15 405.513 379.746 398.281C387.363 391.05 394.918 383.317 402.432 375.106C409.946 366.894 417.177 358.593 424.104 350.182C431.031 341.771 437.192 334.14 442.564 327.288C447.936 320.436 452.388 314.734 455.897 310.18C459.406 305.648 461.466 303.177 462.056 302.788C462.843 302.204 463.955 301.927 465.414 301.935C466.873 301.943 468.221 302.299 469.481 302.981C470.74 303.663 471.693 304.604 472.383 305.762C473.052 306.92 473.001 308.379 472.207 310.138C471.613 311.289 469.767 314.349 466.626 319.275C463.485 324.201 459.293 330.341 454.005 337.694C448.717 345.047 442.575 353.157 435.537 362.047C428.498 370.936 420.914 380.019 412.829 389.295C404.721 398.57 396.179 407.604 387.203 416.374C378.227 425.166 369.148 433.021 359.986 439.961C358.434 440.932 356.14 442.422 353.124 444.431C350.108 446.461 346.548 448.38 342.466 450.187C338.384 452.015 333.999 453.429 329.334 454.492C324.668 455.533 320.116 455.748 315.655 455.136C312.153 454.529 309.395 453.164 307.381 451.019C305.346 448.873 303.968 446.057 303.203 442.547C302.438 439.059 302.264 435.029 302.681 430.459C303.098 425.91 303.909 420.993 305.091 415.773C300.799 420.214 295.527 424.693 289.296 429.231C283.065 433.77 276.576 437.807 269.871 441.363C263.145 444.919 256.64 447.889 250.312 450.293C243.983 452.697 238.598 453.975 234.133 454.124C227.142 454.282 221.138 453.27 216.098 451.108C211.058 448.946 206.958 446.072 203.776 442.461C200.595 438.851 198.287 434.81 196.853 430.338C195.418 425.866 194.724 421.398 194.748 416.935C194.782 410.729 195.801 403.592 197.783 395.546C199.765 387.5 202.685 379.176 206.499 370.552C210.335 361.949 215.129 353.418 220.902 345C226.675 336.583 233.402 328.759 241.129 321.528C248.833 314.297 257.447 308.029 266.992 302.746C276.536 297.463 287.139 293.776 298.801 291.706C305.994 290.395 312.398 290.038 318.012 290.656C323.649 291.275 328.519 292.608 332.689 294.656C336.858 296.726 340.284 299.401 342.988 302.726C345.692 306.05 347.698 309.545 349.05 313.233C351.404 308.782 353.516 304.917 355.384 301.618C357.253 298.34 358.77 295.822 359.933 294.065C363.055 288.66 366.299 284.736 369.6 282.315C372.902 279.916 375.981 278.278 378.795 277.422C381.608 276.567 384.049 276.231 386.073 276.438C388.184 276.69 389.599 276.806 390.361 276.81ZM257.045 429.534C260.334 429.356 264.565 428.073 269.739 425.684C274.891 423.295 280.244 420.014 285.798 415.864C291.351 411.713 296.756 406.887 302.034 401.385C307.312 395.883 311.808 389.941 315.523 383.559C318.482 376.193 321.658 368.742 325.118 361.183C328.556 353.623 331.949 346.369 335.275 339.397C336.483 333.59 336.595 329.017 335.633 325.724C334.671 322.431 333.291 319.897 331.45 318.123C329.609 316.371 327.546 315.249 325.197 314.736C322.87 314.244 321.02 313.994 319.67 313.987C316.188 313.772 311.999 315.252 307.125 318.426C302.252 321.6 297.089 325.906 291.616 331.298C286.143 336.712 280.687 342.888 275.205 349.848C269.723 356.808 264.741 363.967 260.237 371.302C255.733 378.66 251.905 385.868 248.774 392.928C245.621 399.988 243.693 406.249 242.988 411.667C242.283 417.107 242.935 421.466 244.963 424.787C247.014 428.108 251.034 429.697 257.045 429.534Z" stroke="white" stroke-width="2"/>
<path d="M526.137 207.958C529.23 207.779 531.905 208.425 534.14 209.896C536.353 211.367 538.041 213.271 539.204 215.607C540.345 217.943 540.832 220.515 540.621 223.323C540.409 226.131 539.611 228.696 538.249 231.019C529.836 244.365 520.715 259.71 510.909 277.012C501.102 294.335 491.202 312.855 481.208 332.617C492.261 334.223 503.665 335.461 515.398 336.287C527.13 337.135 538.105 337.086 548.301 336.184C558.497 335.282 567.392 333.24 574.987 330.08C582.583 326.921 587.835 322.137 590.788 315.751C592.55 312.081 594.74 309.654 597.381 308.514C600.001 307.374 602.375 307.235 604.526 308.118C606.655 309 608.258 310.62 609.312 312.956C610.366 315.292 610.308 318.013 609.115 321.099C605.563 329.616 600.495 336.534 593.868 341.833C587.241 347.132 579.793 351.272 571.524 354.232C563.255 357.192 554.403 359.147 544.991 360.054C535.579 360.982 526.258 361.258 517.027 360.924C507.796 360.591 499.133 359.869 490.973 358.735C482.835 357.624 475.743 356.475 469.74 355.266C468.154 358.567 466.655 361.803 465.179 364.996C463.702 368.189 462.182 371.426 460.618 374.727C462.516 382.119 464.559 390.862 466.746 400.956C468.912 411.072 470.659 422.143 471.943 434.171C473.228 446.219 473.942 458.94 474.065 472.333C474.188 485.725 473.242 499.417 471.228 513.364C468.2 533.533 464.23 550.649 459.298 564.689C454.365 578.729 448.967 590.263 443.104 599.246C437.241 608.229 431.171 615.185 424.938 620.116C418.705 625.025 412.763 628.586 407.111 630.798C401.459 632.988 396.379 634.223 391.804 634.503C387.252 634.761 383.703 634.698 381.179 634.293C373.412 633.096 366.635 630.032 360.847 625.167C355.06 620.279 350.434 614.048 346.969 606.451C343.527 598.854 341.331 590.219 340.404 580.502C339.499 570.785 340.034 560.51 342.032 549.655C344.43 537.06 348.187 523.057 353.323 507.647C358.459 492.236 364.514 476.111 371.487 459.274C378.482 442.414 386 425.339 394.043 408.006C402.086 390.674 410.234 373.886 418.489 357.621C411.737 350.006 405.922 346.011 401.091 345.593C398 345.38 396.636 343.957 397.042 341.346C397.448 338.735 398.814 335.869 401.161 332.789C403.507 329.688 406.288 326.851 409.504 324.255C412.719 321.66 415.491 320.368 417.821 320.381C418.213 320.383 419.997 320.785 423.193 321.565C426.39 322.366 430.501 323.259 435.547 324.245C441.424 312.823 447.078 302.141 452.468 292.175C457.857 282.209 462.718 273.352 467.028 265.601C471.338 257.873 474.967 251.382 477.913 246.15C480.86 240.918 482.817 237.445 483.784 235.708C486.336 231.062 489.559 227.051 493.453 223.675C497.347 220.3 501.391 217.513 505.584 215.293C509.777 213.094 513.706 211.417 517.392 210.262C521.079 209.106 524.001 208.338 526.137 207.958ZM454.319 507.48C456.362 488.263 456.373 470.32 454.33 453.607C452.287 436.894 449.06 421.742 444.67 408.131C437 424.986 429.68 441.627 422.709 458.094C415.716 474.562 409.533 490.25 404.117 505.159C398.701 520.067 394.161 533.891 390.499 546.588C386.837 559.285 384.359 570.334 383.045 579.733C381.731 589.133 381.799 596.603 383.206 602.141C384.634 607.68 387.775 610.746 392.628 611.36C403.291 612.594 412.036 610.116 418.864 603.947C425.692 597.779 431.311 589.491 435.745 579.15C440.178 568.787 443.769 557.266 446.56 544.564C449.33 531.863 451.923 519.487 454.319 507.48Z" stroke="white" stroke-width="2"/>
<path d="M723.733 278.631C727.217 278.65 730.088 279.384 732.301 280.855C734.514 282.326 736.225 283.99 737.369 285.826C738.513 287.683 739.243 289.625 739.515 291.652C739.787 293.7 739.821 295.399 739.639 296.748C738.835 300.423 737.068 305.074 734.315 310.698C731.563 316.323 728.371 322.512 724.741 329.286C721.111 336.06 717.131 343.268 712.821 350.909C708.511 358.551 704.398 366.063 700.46 373.401C696.544 380.762 692.999 387.928 689.869 394.879C686.717 401.852 684.462 408.046 683.061 413.482C681.882 417.94 681.999 420.423 683.455 420.91C684.912 421.397 687.574 420.301 691.487 417.6C698.305 413.173 705.523 407.333 713.118 400.102C720.736 392.87 728.291 385.138 735.805 376.926C743.318 368.714 750.55 360.414 757.477 352.002C764.404 343.591 770.564 335.96 775.937 329.108C781.309 322.257 785.761 316.554 789.269 312C792.778 307.468 794.839 304.997 795.429 304.608C796.216 304.025 797.328 303.748 798.787 303.756C800.246 303.764 801.594 304.119 802.853 304.801C804.112 305.483 805.065 306.425 805.756 307.583C806.425 308.74 806.373 310.199 805.58 311.959C804.985 313.109 803.139 316.17 799.999 321.096C796.858 326.022 792.665 332.161 787.377 339.514C782.089 346.867 775.948 354.978 768.909 363.867C761.871 372.757 754.287 381.839 746.201 391.115C738.093 400.391 729.552 409.424 720.576 418.194C711.6 426.986 702.52 434.841 693.358 441.781C691.807 442.753 689.512 444.243 686.496 446.251C683.48 448.282 679.92 450.2 675.839 452.007C671.756 453.836 667.372 455.249 662.706 456.312C658.041 457.354 653.488 457.568 649.028 456.956C645.525 456.349 642.767 454.984 640.754 452.839C638.718 450.694 637.34 447.877 636.575 444.367C635.811 440.879 635.637 436.85 636.053 432.279C636.47 427.73 637.281 422.813 638.464 417.594C634.171 422.034 628.899 426.513 622.668 431.052C616.437 435.591 609.948 439.627 603.244 443.184C596.517 446.74 590.012 449.709 583.684 452.114C577.356 454.518 571.97 455.795 567.506 455.945C560.515 456.103 554.51 455.09 549.47 452.928C544.43 450.767 540.33 447.892 537.149 444.282C533.968 440.671 531.66 436.63 530.225 432.158C528.791 427.687 528.096 423.219 528.121 418.755C528.155 412.549 529.174 405.412 531.156 397.366C533.138 389.32 536.057 380.996 539.872 372.372C543.708 363.77 548.501 355.238 554.274 346.821C560.047 338.403 566.775 330.579 574.501 323.348C582.205 316.117 590.819 309.85 600.364 304.567C609.909 299.284 620.512 295.596 632.173 293.526C639.366 292.215 645.77 291.858 651.385 292.477C657.021 293.096 661.892 294.429 666.061 296.477C670.231 298.546 673.657 301.222 676.361 304.546C679.064 307.871 681.07 311.366 682.422 315.053C684.776 310.602 686.888 306.738 688.757 303.438C690.626 300.16 692.142 297.642 693.306 295.885C696.427 290.48 699.672 286.556 702.973 284.135C706.274 281.736 709.353 280.098 712.167 279.243C714.981 278.387 717.421 278.052 719.445 278.259C721.556 278.51 722.971 278.627 723.733 278.631ZM590.417 431.355C593.706 431.177 597.938 429.893 603.111 427.504C608.264 425.115 613.616 421.835 619.17 417.684C624.724 413.534 630.129 408.707 635.407 403.205C640.685 397.703 645.181 391.761 648.896 385.379C651.854 378.014 655.03 370.562 658.49 363.003C661.929 355.444 665.322 348.189 668.648 341.218C669.855 335.41 669.967 330.838 669.006 327.544C668.044 324.251 666.664 321.718 664.823 319.944C662.981 318.192 660.919 317.07 658.57 316.556C656.243 316.064 654.393 315.815 653.043 315.807C649.56 315.592 645.371 317.072 640.498 320.246C635.624 323.421 630.462 327.726 624.989 333.118C619.515 338.532 614.059 344.708 608.577 351.668C603.096 358.628 598.113 365.787 593.609 373.123C589.105 380.48 585.277 387.689 582.146 394.748C578.994 401.808 577.065 408.069 576.361 413.487C575.656 418.927 576.307 423.286 578.336 426.607C580.386 429.928 584.406 431.518 590.417 431.355Z" stroke="white" stroke-width="2"/>
<path d="M798.103 257.784C802.175 257.61 805.524 258.5 808.126 260.452C810.729 262.404 812.018 265.612 811.994 270.076C811.982 272.21 811.247 275.211 809.767 279.101C808.287 282.969 806.763 286.858 805.196 290.725C803.037 295.178 800.769 299.912 798.411 304.951C799.749 307.093 803.141 308.135 808.585 308.056C814.008 307.998 820.239 307.401 827.235 306.263C834.231 305.125 841.423 303.923 848.791 302.592C856.18 301.282 862.477 300.445 867.727 300.082C871.8 299.908 874.91 300.753 877.033 302.615C879.157 304.478 880.604 306.772 881.373 309.476C882.142 312.203 882.257 315.056 881.762 318.058C881.266 321.06 880.316 323.538 878.956 325.468C878.165 326.618 876.209 329.961 873.087 335.475C869.943 340.989 866.379 347.676 862.351 355.515C858.323 363.354 854.293 371.737 850.281 380.643C846.247 389.549 843.045 397.828 840.673 405.48C838.301 413.132 837.155 419.68 837.212 425.125C837.27 430.569 839.452 433.586 843.717 434.197C846.045 434.602 850.039 432.881 855.678 429.014C861.339 425.169 867.9 419.957 875.427 413.4C882.932 406.843 890.878 399.222 899.287 390.536C907.674 381.849 915.845 372.966 923.756 363.885C931.666 354.805 938.901 345.829 945.439 336.915C951.998 328.023 957.138 319.994 960.857 312.828C961.847 310.896 963.357 309.597 965.386 308.912C967.436 308.248 969.462 308.215 971.505 308.793C973.549 309.37 975.175 310.664 976.428 312.609C977.68 314.553 978.014 317.277 977.407 320.758C977.205 321.737 975.6 324.668 972.546 329.616C969.514 334.542 965.452 340.683 960.36 348.037C955.268 355.391 949.213 363.545 942.174 372.544C935.135 381.542 927.573 390.559 919.467 399.639C911.36 408.719 902.82 417.404 893.847 425.695C884.874 433.986 875.798 441.079 866.642 446.952C857.486 452.825 848.382 457.13 839.352 459.912C830.3 462.671 821.61 463.059 813.28 461.076C805.321 459.094 799.286 455.86 795.129 451.374C790.973 446.887 788.345 441.538 787.203 435.325C786.083 429.113 786.12 422.32 787.315 414.944C788.509 407.569 790.357 400.219 792.814 392.85C795.271 385.482 798.185 378.268 801.512 371.209C804.838 364.151 808.096 357.81 811.218 352.187C814.341 346.586 817.045 341.984 819.307 338.404C821.548 334.823 822.975 332.653 823.567 331.873C825.716 329.162 825.967 327.139 824.319 325.758C822.672 324.399 820.495 324.191 817.768 325.134C814.844 326.272 810.81 327.23 805.667 327.986C800.524 328.742 795.365 328.409 790.234 327.031C785.102 325.653 780.589 322.71 776.737 318.225C772.886 313.74 770.877 306.848 770.731 297.527C770.551 294.608 771.007 290.931 772.098 286.473C773.19 282.015 774.912 277.713 777.264 273.545C779.617 269.376 782.49 265.756 785.903 262.682C789.404 259.587 793.442 257.955 798.103 257.784Z" stroke="white" stroke-width="2"/>
<path d="M985.65 302.468C989.154 302.683 992.046 303.483 994.369 304.846C996.691 306.209 998.424 307.873 999.589 309.817C1000.73 311.762 1001.46 313.747 1001.73 315.796C1002.01 317.844 1002.06 319.543 1001.86 320.892C1000.68 326.133 997.72 333.151 993.012 341.944C988.304 350.759 983.114 360.138 977.419 370.102C971.725 380.066 966.291 390.183 961.096 400.433C955.901 410.704 952.214 419.895 950.036 428.027C948.836 432.485 949.455 434.818 951.892 435.028C954.308 435.237 957.472 434.078 961.383 431.595C968.006 427.167 975.703 421.243 984.475 413.822C993.248 406.401 1002.22 398.393 1011.39 389.798C1020.56 381.225 1029.58 372.564 1038.47 363.881C1047.36 355.197 1055.3 347.227 1062.33 339.993C1069.36 332.758 1075.17 326.78 1079.77 322.036C1084.34 317.314 1086.95 314.759 1087.52 314.37C1088.3 313.786 1089.41 313.509 1090.87 313.517C1092.33 313.525 1093.68 313.881 1094.94 314.563C1096.2 315.245 1097.15 316.186 1097.84 317.344C1098.51 318.523 1098.46 319.96 1097.67 321.72C1097.07 322.871 1094.64 326.037 1090.34 331.152C1086.05 336.268 1080.48 342.661 1073.64 350.289C1066.81 357.916 1058.9 366.409 1049.92 375.789C1040.94 385.147 1031.57 394.568 1021.81 404.031C1012.04 413.493 1002.09 422.694 991.956 431.675C981.803 440.657 972.157 448.595 962.995 455.535C961.639 456.508 959.388 457.998 956.263 460.006C953.138 462.036 949.6 463.955 945.606 465.762C941.611 467.591 937.291 469.07 932.625 470.199C927.959 471.327 923.297 471.607 918.641 470.993C911.46 469.974 907.061 466.031 905.466 459.119C903.849 452.229 904.047 443.781 906.04 433.797C908.032 423.813 911.336 412.922 915.974 401.101C920.589 389.28 925.464 377.962 930.575 367.124C935.686 356.286 940.529 346.6 945.149 338.09C949.746 329.579 953.133 323.478 955.287 319.81C958.429 314.579 961.652 310.721 964.953 308.213C968.255 305.705 971.335 304.023 974.148 303.168C976.962 302.312 979.403 301.977 981.427 302.184C983.473 302.369 984.887 302.464 985.65 302.468ZM989.705 253.583C991.467 250.086 993.573 247.093 996.004 244.58C998.435 242.068 1001.02 240.144 1003.74 238.808C1006.47 237.473 1009.29 236.705 1012.21 236.525C1015.12 236.345 1017.82 236.838 1020.34 238.028C1022.86 239.392 1024.94 241.298 1026.58 243.746C1028.22 246.193 1029.32 248.9 1029.89 251.908C1030.46 254.916 1030.49 258.182 1029.99 261.664C1029.49 265.167 1028.34 268.645 1026.58 272.119C1024.82 275.615 1022.71 278.609 1020.28 281.121C1017.83 283.634 1015.25 285.558 1012.54 286.893C1009.81 288.228 1007 288.997 1004.08 289.177C1001.16 289.357 998.441 288.863 995.943 287.674C990.905 285.12 987.773 280.552 986.546 273.926C985.319 267.343 986.379 260.554 989.705 253.583Z" stroke="white" stroke-width="2"/>
</svg>
