<svg width="1172" height="169" xmlns="http://www.w3.org/2000/svg">

 <g>
  <title>background</title>
  <rect fill="none" id="canvas_background" height="402" width="582" y="-1" x="-1"/>
 </g>
 <g>
  <title>Layer 1</title>
  <path id="svg_22" stroke-width="0.5" stroke="#00FF85" fill="#00FF85" d="m5.05633,-227.458l0,-0.009l-0.0007,-0.01c-2.34994,-31.062 -3.14275,-61.701 -2.73692,-91.52l0.00345,-0.253l-0.25343,0l-0.47199,0l-0.24654,0l-0.00344,0.246c-0.41545,29.842 0.37769,60.505 2.7383,91.603c4.95726,65.486 16.53384,126.591 34.39174,181.6339c19.6427,60.5333 47.1724,114.5241 81.8352,160.4801l0.15,0.199l0.2,-0.15l0.377,-0.282l0.201,-0.151l-0.151,-0.2c-34.5979,-45.8601 -62.0844,-99.753 -81.693,-160.1919c-17.8337,-54.9501 -29.3846,-115.9841 -34.33967,-181.3951z"/>
  <path id="svg_1" stroke-width="0.5" stroke="#00FF85" fill="#00FF85" d="m511.711,61.6389l0.009,0l-0.344,-0.4106c-31.043,-37.0129 -59.135,-80.7019 -83.483,-129.8428c-44.005,-88.8195 -68.525,-179.9045 -82.125,-250.4235l-0.039,-0.203l-0.206,0l-0.482,0l-0.303,0l0.058,0.297c13.605,70.595 38.155,161.802 82.224,250.7589c24.382,49.2095 52.505,92.9611 83.605,130.0364c34.207,40.7827 72.479,74.0227 113.757,98.8007l0.214,0.128l0.129,-0.213l0.245,-0.406l0.13,-0.214l-0.215,-0.13c-41.04,-24.634 -79.114,-57.668 -113.174,-98.1781z"/>
  <path id="svg_2" stroke-width="0.5" stroke="#00FF85" fill="#00FF85" d="m359.757,-319.041l-0.041,-0.2l-0.203,0l-0.482,0l-0.307,0l0.062,0.301c14.56,70.585 40.818,163.528 87.673,253.7107c25.09,48.2947 53.799,91.1125 85.324,127.2635c34.67,39.7548 73.235,71.9758 114.608,95.7348l0.216,0.123l0.125,-0.214l0.236,-0.406l0.126,-0.217l-0.218,-0.125c-41.283,-23.71 -79.758,-55.856 -114.358,-95.5356l-0.074,-0.0857l-0.01,0c-31.438,-36.0711 -60.08,-78.7878 -85.116,-126.9854c-46.779,-90.0443 -73.007,-182.8453 -87.561,-253.3643z"/>
  <path id="svg_3" stroke-width="0.5" stroke="#00FF85" fill="#00FF85" d="m373.492,-319.054l-0.043,-0.196l-0.201,0l-0.482,0l-0.311,0l0.067,0.304c15.494,70.405 43.5,164.971 93.15,256.2103c25.789,47.3799 55.045,89.264 86.967,124.4905l0.185,-0.1678l-0.185,0.1679c35.114,38.7361 73.934,69.9281 115.393,92.6871l0.219,0.121l0.12,-0.22l0.227,-0.415l0.119,-0.219l-0.218,-0.12c-41.358,-22.71 -80.088,-53.8288 -115.14,-92.4905c-31.864,-35.1558 -61.089,-76.9782 -86.833,-124.2995c-49.573,-91.091 -77.546,-185.513 -93.034,-255.853z"/>
  <path id="svg_4" stroke-width="0.5" stroke="#00FF85" fill="#00FF85" d="m287.28,-319.026l-0.03,-0.215l-0.217,0l-0.482,0l-0.288,0l0.041,0.285c9.734,68.831 27.769,151.908 61.016,234.4025c21.275,52.7933 46.857,100.2326 76.049,141.0243c32.101,44.8582 69.011,82.2482 109.694,111.1292l0.204,0.145l0.145,-0.204l0.274,-0.387l0.144,-0.204l-0.204,-0.144c-40.595,-28.818 -77.42,-66.129 -109.463,-110.9091c-29.138,-40.7176 -54.683,-88.0928 -75.935,-140.8165c-33.2,-82.3814 -51.217,-165.3504 -60.948,-234.1064z"/>
  <path id="svg_5" stroke-width="0.5" stroke="#00FF85" fill="#00FF85" d="m331.543,-319.044l-0.037,-0.206l-0.209,0l-0.482,0l-0.299,0l0.053,0.294c12.643,70.434 35.502,159.783 76.814,247.3625c23.636,50.115 51.163,94.8002 81.819,132.7999c33.717,41.8016 71.686,76.0786 112.851,101.8656l0.209,0.132l0.134,-0.208l0.255,-0.396l0.137,-0.213l-0.215,-0.134c-41.066,-25.736 -78.957,-59.937 -112.604,-101.6528c-30.6,-37.9367 -58.088,-82.559 -81.699,-132.605c-41.25,-87.4522 -64.09,-176.6802 -76.727,-247.0392z"/>
  <path id="svg_6" stroke-width="0.5" stroke="#00FF85" fill="#00FF85" d="m556.939,165.756c-40.65,-27.696 -77.75,-63.834 -110.288,-107.4174l0.009,0l-0.298,-0.3994c-29.647,-39.7938 -55.871,-86.2544 -77.925,-138.0918c-35.843,-84.2284 -55.436,-169.4034 -66.119,-238.8854l-0.033,-0.212l-0.215,0l-0.481,0l-0.291,0l0.044,0.288c10.698,69.557 30.309,154.831 66.201,239.1843c22.086,51.9068 48.339,98.4312 78.041,138.2985l0.2,-0.1493l-0.2,0.1494c32.668,43.8391 69.947,80.1911 110.809,108.0351l0.206,0.141l0.141,-0.206l0.265,-0.387l0.141,-0.207l-0.207,-0.141z"/>
  <path id="svg_7" stroke-width="0.5" stroke="#00FF85" fill="#00FF85" d="m467.85,58.9234l0,0.0087c-29.956,-38.7431 -56.668,-84.081 -79.402,-134.7798c-38.532,-85.9253 -59.72,-173.1743 -71.386,-243.1933l-0.035,-0.209l-0.211,0l-0.482,0l-0.295,0l0.049,0.291c11.67,70.085 32.886,157.463 71.469,243.5045c22.871,51.0108 49.775,96.6204 79.968,135.5539c33.206,42.8206 70.835,78.1356 111.868,104.9506l0.211,0.138l0.136,-0.212l0.255,-0.396l0.134,-0.209l-0.208,-0.135c-40.934,-26.754 -78.485,-61.992 -111.623,-104.7353l-0.448,-0.5773z"/>
  <path id="svg_8" stroke-width="0.5" stroke="#00FF85" fill="#00FF85" d="m594.616,-57.9476l-0.01,0.0094c-65.051,-88.7618 -104.996,-184.9378 -127.052,-250.0158c-1.078,-3.182 -2.477,-6.902 -4.081,-11.135l-0.062,-0.161l-0.172,0l-0.5,0l-0.363,0l0.129,0.339c1.633,4.3 3.048,8.058 4.131,11.268l0,0.001c22.095,65.191 62.13,161.577 127.362,250.5076c63.476,86.545 136.049,145.9964 215.72,176.7104l0.234,0.091l0.089,-0.234l0.17,-0.444l0.09,-0.233l-0.233,-0.089c-79.468,-30.6347 -151.902,-89.9678 -215.28,-176.38l-0.172,-0.2346z"/>
  <path id="svg_9" stroke-width="0.5" stroke="#00FF85" fill="#00FF85" d="m451.316,-319.074l-0.059,-0.167l-0.177,0l-0.5,0l-0.353,0l0.117,0.333c0.906,2.574 1.717,4.928 2.386,7.037c21.027,66.19 59.542,164.199 123.622,255.1853c62.352,88.5351 134.414,149.9202 214.189,182.4367l0.23,0.094l0.095,-0.23l0.18,-0.434l0.096,-0.232l-0.233,-0.095c-79.581,-32.4436 -151.497,-93.6996 -213.762,-182.1011c-64.001,-90.8729 -102.478,-188.7819 -123.497,-254.9169c-0.662,-2.078 -1.446,-4.391 -2.334,-6.91z"/>
  <path id="svg_10" stroke-width="0.5" stroke="#00FF85" fill="#00FF85" d="m387.009,-319.057l-0.045,-0.193l-0.198,0l-0.482,0l-0.315,0l0.072,0.307c16.41,70.066 46.191,166.141 98.645,258.2766c26.45,46.4651 56.245,87.406 88.545,121.6987c35.53,37.7176 74.595,67.8817 116.101,89.6497l0.222,0.116l0.116,-0.221l0.217,-0.415l0.116,-0.222l-0.221,-0.116c-41.415,-21.721 -80.389,-51.8115 -115.848,-89.4551l-0.182,0.1714l0.182,-0.1714c-32.25,-34.232 -61.993,-75.121 -88.407,-121.5184c-52.376,-91.9865 -82.114,-187.9165 -98.518,-257.9075z"/>
  <path id="svg_11" stroke-width="0.5" stroke="#00FF85" fill="#00FF85" d="m378.548,49.6267l0,0.008c-27.857,-42.40502 -51.839,-91.36 -71.286,-145.5307c-28.076,-78.196 -43.092,-156.395 -50.925,-223.133l-0.026,-0.221l-0.223,0l-0.472,0l-0.281,0l0.033,0.279c7.846,66.803 22.878,145.097 50.989,223.3948c19.575,54.5381 43.75,103.79755 71.846,146.4284c30.901,46.8858 66.98,86.3698 107.247,117.3458l0.2,0.154l0.152,-0.202l0.283,-0.377l0.149,-0.198l-0.196,-0.151c-40.171,-30.901 -76.176,-70.3044 -107.031,-117.1016l-0.459,-0.6957z"/>
  <path id="svg_12" stroke-width="0.5" stroke="#00FF85" fill="#00FF85" d="m611.725,-59.1344l0,0.0088c-65.986,-86.6204 -107.32,-180.9844 -130.381,-244.9664c-1.314,-3.645 -3.072,-8.015 -5.101,-13.058c-0.255,-0.642 -0.52,-1.294 -0.784,-1.944l-0.063,-0.156l-0.168,0l-0.51,0l-0.368,0l0.135,0.342c0.153,0.386 0.311,0.775 0.466,1.159c0.131,0.323 0.261,0.643 0.384,0.953l0,0.001c2.031,5.046 3.775,9.389 5.085,13.023c23.143,64.182 64.642,158.928 130.978,245.8116c64.544,84.5456 137.589,142.0915 217.119,171.0034l0.236,0.086l0.085,-0.235l0.16,-0.444l0.085,-0.234l-0.234,-0.086c-79.335,-28.8435 -152.232,-86.263 -216.676,-170.6767l-0.448,-0.5877z"/>
  <path id="svg_13" stroke-width="0.5" stroke="#00FF85" fill="#00FF85" d="m413.383,-319.064l-0.049,-0.186l-0.193,0l-0.491,0l-0.324,0l0.082,0.313c18.157,68.916 51.545,167.641 109.628,261.1077c58.707,94.4769 128.973,161.6823 208.85,199.7463l0.224,0.106l0.108,-0.222l0.208,-0.424l0.111,-0.227l-0.228,-0.109c-79.696,-37.966 -149.83,-105.0383 -208.443,-199.3793l-0.073,-0.1181l-0.009,0c-57.937,-93.2706 -91.269,-191.7866 -109.401,-260.6076z"/>
  <path id="svg_14" stroke-width="0.5" stroke="#00FF85" fill="#00FF85" d="m400.29,-319.051l-0.047,-0.19l-0.195,0l-0.491,0l-0.32,0l0.077,0.311c17.298,69.566 48.882,167.027 104.151,259.9085c27.101,45.5314 57.396,85.5479 90.065,118.9069c35.927,36.6988 75.21,65.8536 116.754,86.6306l0.225,0.113l0.111,-0.226l0.208,-0.425l0.109,-0.222l-0.222,-0.111c-79.658,-39.851 -149.113,-108.8748 -206.415,-205.1674c-55.178,-92.7216 -86.719,-190.0376 -104.01,-259.5286z"/>
  <path id="svg_15" stroke-width="0.5" stroke="#00FF85" fill="#00FF85" d="m540.727,-58.2782l0,0.0084c-60.483,-93.5232 -95.537,-192.9022 -114.46,-260.7882l-0.051,-0.183l-0.189,0l-0.491,0l-0.33,0l0.089,0.317c18.978,68.124 54.197,168 115.076,261.8909c59.972,92.4963 130.881,157.7581 210.759,193.9541l0.227,0.103l0.103,-0.227l0.199,-0.433l0.104,-0.228l-0.229,-0.104c-79.685,-36.1098 -150.461,-101.24 -210.347,-193.6012l-0.46,-0.709z"/>
  <path id="svg_16" stroke-width="0.5" stroke="#00FF85" fill="#00FF85" d="m438.933,-319.076l-0.055,-0.174l-0.183,0l-0.491,0l-0.341,0l0.103,0.325c0.264,0.839 0.518,1.657 0.744,2.437l0,0.001c19.932,67.19 56.889,166.802 119.769,259.8256c61.191,90.5157 132.695,153.844 212.536,188.1914l0.228,0.098l0.1,-0.228l0.189,-0.434l0.1,-0.23l-0.231,-0.1c-79.647,-34.2623 -151.017,-97.4601 -212.111,-187.8414l-0.074,-0.11l-0.01,0c-62.758,-92.8776 -99.657,-192.3476 -119.563,-259.4456c-0.218,-0.737 -0.454,-1.512 -0.71,-2.315z"/>
  <path id="svg_17" stroke-width="0.5" stroke="#00FF85" fill="#00FF85" d="m271.95,-319.023l-0.028,-0.218l-0.22,0l-0.472,0l-0.284,0l0.036,0.282c8.781,67.916 25.295,148.663 55.946,229.1393c20.444,53.6704 45.327,102.0245 73.98,143.7405l0.206,-0.1415l-0.206,0.1415c31.516,45.8671 68.02,84.3042 108.504,114.2232l0.2,0.148l0.149,-0.199l0.283,-0.377l0.151,-0.201l-0.203,-0.15c-40.397,-29.855 -76.826,-68.2123 -108.284,-114.0008c-28.61,-41.6415 -53.466,-89.9311 -73.878,-143.5316c-30.605,-80.3636 -47.102,-161.0136 -55.88,-228.8556z"/>
  <path id="svg_18" stroke-width="0.5" stroke="#00FF85" fill="#00FF85" d="m42.9012,-318.991l-0.0001,-0.25l-0.2499,0l-0.472,0l-0.2501,0l0.0001,0.25c0.0189,37.567 1.9261,76.624 6.4774,116.305c7.3462,64.091 21.0005,123.6394 40.6055,176.9847c21.5599,58.6753 50.6289,110.6383 86.3879,154.4343l0.159,0.194l0.193,-0.159l0.369,-0.302l0.193,-0.158l-0.158,-0.193c-35.683,-43.7109 -64.698,-95.5676 -86.2215,-154.1491l-0.2346,0.0863l0.2346,-0.0863c-19.5802,-53.2656 -33.2263,-112.7369 -40.5592,-176.7559l-0.0099,-0.087l-0.0094,-0.009c-4.5323,-39.612 -6.436,-78.602 -6.4548,-116.105z"/>
  <path id="svg_19" stroke-width="0.5" stroke="#00FF85" fill="#00FF85" d="m27.2288,-214.902c-3.3685,-35.424 -4.6708,-70.321 -4.4443,-104.087l0.0017,-0.252l-0.2517,0l-0.472,0l-0.2483,0l-0.0017,0.248c-0.2266,33.804 1.0765,68.73 4.4474,104.194c6.1659,64.799 18.7908,125.1301 37.5364,179.3241c20.6156,59.609 48.9287,112.5907 84.1497,157.4619l0.155,0.198l0.197,-0.157l0.368,-0.292l0.195,-0.155l-0.154,-0.195c-35.154,-44.7855 -63.4141,-97.6697 -83.9945,-157.1846c-18.7121,-54.1235 -31.3296,-114.3774 -37.4828,-179.1044l-0.0009,0.001z"/>
  <path id="svg_20" stroke-width="0.5" stroke="#00FF85" fill="#00FF85" d="m139.897,-8.11736c-21.22,-51.54454 -36.856,-109.38764 -46.4731,-171.93864l0,-0.009l-0.0029,-0.019c-7.3235,-47.616 -10.6928,-94.47 -11.4289,-138.911l-0.0041,-0.246l-0.2459,0l-0.472,0l-0.2542,0l0.0042,0.254c0.7365,44.48 4.1167,91.385 11.4347,139.054c9.6222,62.63 25.2872,120.5564 46.5362,172.18511l0.231,-0.09515l-0.231,0.0952c23.382,56.77954 53.869,106.68644 90.62,148.32184l0.164,0.186l0.187,-0.162l0.359,-0.312l0.19,-0.165l-0.167,-0.189c-36.672,-41.5519 -67.112,-91.3629 -90.447,-148.04936z"/>
  <path id="svg_21" stroke-width="0.5" stroke="#00FF85" fill="#00FF85" d="m62.6306,-319.002l-0.002,-0.248l-0.248,0l-0.472,0l-0.252,0l0.0021,0.252c0.3399,41.122 2.9458,84.169 8.8096,127.924c8.4982,63.365 23.1724,122.1123 43.6087,174.5993c22.485,57.7322 52.273,108.6671 88.542,151.3877l0.161,0.19l0.19,-0.161l0.359,-0.301l0.192,-0.162l-0.162,-0.191c-36.192,-42.6366 -65.933,-93.4752 -88.373,-151.1138c-20.4101,-52.4172 -35.0659,-111.0782 -43.5501,-174.3802l-0.0291,-0.217l-0.0094,0c-5.8402,-43.629 -8.4276,-86.562 -8.7668,-127.579z"/>
  <path id="svg_23" stroke-width="0.5" stroke="#00FF85" fill="#00FF85" d="m628.887,-60.3287l0,-0.0088l0.445,0.5612c65.473,82.4244 138.803,137.9304 217.958,165.0023l0.236,0.081l-0.08,0.236l-0.151,0.444l-0.081,0.237l-0.237,-0.081c-79.361,-27.1389 -152.841,-82.7605 -218.404,-165.316c-67.376,-84.837 -110.31,-177.932 -134.463,-241.086c-1.324,-3.457 -3.073,-7.578 -5.095,-12.343l-0.197,-0.463l140.069,252.7363zm0,0c-67.048,-84.5843 -109.796,-177.3103 -133.876,-240.2693c-1.361,-3.565 -3.17,-7.827 -5.257,-12.744l-0.042,-0.098l-0.23,0.098l0.23,-0.098c-0.774,-1.82 -1.576,-3.715 -2.398,-5.658l-0.064,-0.152l-0.166,0l-0.51,0l-0.375,0l0.145,0.346c0.84,2.009 1.671,3.962 2.474,5.838l140.069,252.7373z"/>
  <path id="svg_24" stroke-width="0.5" stroke="#00FF85" fill="#00FF85" d="m240.412,-319.027l-0.024,-0.223l-0.225,0l-0.472,0l-0.278,0l0.03,0.276c6.939,65.492 20.536,141.221 46.163,217.179c18.697,55.3964 42.126,105.56127 69.636,149.1165l0.211,-0.1335l-0.211,0.1335c30.268,47.9044 65.903,88.4265 105.915,120.4495l0.196,0.156l0.156,-0.196l0.292,-0.368l0.156,-0.195l-0.195,-0.156c-39.926,-31.947 -75.487,-72.3969 -105.701,-120.2121c-27.468,-43.47982 -50.871,-93.5796 -69.537,-148.9059c-25.604,-75.858 -39.185,-151.492 -46.112,-216.921z"/>
  <path id="svg_25" stroke-width="0.5" stroke="#00FF85" fill="#00FF85" d="m173.427,-319.007l-0.015,-0.234l-0.235,0l-0.472,0l-0.266,0l0.017,0.266c3.663,58.211 12.067,122.395 28.563,187.364c14.91,58.7255 35.127,112.4365 60.097,159.623c27.463,51.9035 61.057,96.613 99.859,132.881l0.184,0.172l0.171,-0.185l0.321,-0.349l0.168,-0.183l-0.182,-0.169c-38.719,-36.189 -72.252,-80.8147 -99.664,-132.6271c-24.929,-47.1188 -45.124,-100.7541 -60.016,-159.4079c-16.468,-64.886 -24.868,-129.001 -28.53,-187.151z"/>
  <path id="svg_26" stroke-width="0.5" stroke="#00FF85" fill="#00FF85" d="m190.683,-319.009l-0.017,-0.232l-0.232,0l-0.472,0l-0.269,0l0.019,0.268c4.419,60.343 14.031,127.593 32.68,195.552c15.892,57.914 36.95,110.7479 62.591,157.029c28.199,50.9131 62.342,94.576 101.483,129.778l0.187,0.168l0.167,-0.187l0.312,-0.349l0.165,-0.186l-0.185,-0.167c-39.058,-35.123 -73.129,-78.7031 -101.286,-129.5256c-25.6,-46.2137 -46.635,-98.9723 -62.498,-156.8154c-18.62,-67.874 -28.228,-135.053 -32.645,-195.333z"/>
  <path id="svg_27" stroke-width="0.5" stroke="#00FF85" fill="#00FF85" d="m412.276,164.623c-39.367,-34.065 -73.964,-76.5943 -102.827,-126.4126l0.003,-0.0021c-26.251,-45.3087 -48.088,-97.1904 -64.924,-154.2043c-20.866,-70.702 -31.747,-140.821 -36.957,-203.025l-0.019,-0.229l-0.23,0l-0.472,0l-0.272,0l0.023,0.271c5.221,62.266 16.108,132.468 36.995,203.257c16.845,57.0843 38.725,109.03165 65.008,154.4166l0.216,-0.1253l-0.216,0.1254c28.917,49.9134 63.579,92.5293 103.033,126.6653l0.189,0.163l0.163,-0.188l0.312,-0.358l0.164,-0.19l-0.189,-0.164z"/>
  <path id="svg_28" stroke-width="0.5" stroke="#00FF85" fill="#00FF85" d="m437.175,166.082c-39.646,-32.989 -74.724,-74.4562 -104.269,-123.2542l0,-0.0095l-0.036,-0.0597c-26.874,-44.39417 -49.503,-95.3897 -67.264,-151.5636c-23.197,-73.361 -35.4,-146.299 -41.449,-210.219l-0.022,-0.226l-0.227,0l-0.472,0l-0.275,0l0.026,0.273c6.061,63.984 18.27,137.005 41.499,210.464c17.781,56.2447 40.444,107.30561 67.36,151.7757l0.213,-0.1294l-0.213,0.1294c29.607,48.9042 64.769,90.4823 104.507,123.5623l0.191,0.159l0.16,-0.19l0.302,-0.359l0.162,-0.192l-0.193,-0.161z"/>
  <path id="svg_29" stroke-width="0.5" stroke="#00FF85" fill="#00FF85" d="m101.004,-318.997l-0.006,-0.244l-0.244,0l-0.472,0l-0.256,0l0.006,0.256c1.199,47.639 5.429,98.251 14.353,149.694c10.726,61.875 27.346,118.9808 49.397,169.73246c24.252,55.81764 55.409,104.68654 92.623,145.25654l0.169,0.184l0.184,-0.169l0.349,-0.32l0.184,-0.169l-0.169,-0.185c-37.135,-40.477 -68.234,-89.2605 -92.447,-144.98539c-22.015,-50.67291 -38.614,-107.70261 -49.326,-169.51561l-0.036,-0.207l-0.009,0c-8.885,-51.315 -13.112,-101.802 -14.3,-149.328z"/>
  <path id="svg_30" stroke-width="0.5" stroke="#00FF85" fill="#00FF85" d="m155.85,-319.004l-0.013,-0.237l-0.237,0l-0.472,0l-0.263,0l0.014,0.263c2.955,55.873 10.216,116.859 24.654,178.678c13.899,59.5362 33.257,114.1054 57.528,162.1973c26.698,52.8939 59.725,98.6507 98.168,135.9847l0.179,0.174l0.174,-0.179l0.331,-0.339l0.174,-0.18l-0.179,-0.174c-38.361,-37.263 -71.319,-82.9265 -97.976,-135.7288c-24.241,-48.0144 -43.568,-102.5077 -57.45,-161.9722c-14.42,-61.747 -21.669,-122.666 -24.632,-178.487z"/>
  <path id="svg_31" stroke-width="0.5" stroke="#00FF85" fill="#00FF85" d="m137.159,-159.297l0,-0.009l-0.004,-0.024c-10.627,-54.987 -15.799,-109.138 -17.517,-159.679l-0.008,-0.241l-0.241,0l-0.472,0l-0.259,0l0.009,0.258c1.718,50.591 6.892,104.787 17.534,159.842c11.813,61.1114 29.367,117.3782 52.183,167.25264c25.093,54.85556 56.901,102.68736 94.541,142.17236l0.171,0.18l0.181,-0.171l0.34,-0.32l0.183,-0.173l-0.174,-0.182c-37.568,-39.403 -69.319,-87.1491 -94.362,-141.90294c-22.776,-49.78976 -40.308,-105.97216 -52.105,-167.00306z"/>
  <path id="svg_32" stroke-width="0.5" stroke="#00FF85" fill="#00FF85" d="m137.924,-319.002l-0.011,-0.239l-0.239,0l-0.472,0l-0.261,0l0.011,0.261c2.313,53.335 8.488,110.993 20.971,169.51c12.871,60.3281 31.332,115.7555 54.894,164.7341c25.905,53.8747 58.337,100.6689 96.392,139.0779l0.174,0.176l0.178,-0.172l0.339,-0.33l0.182,-0.176l-0.178,-0.179c-37.974,-38.329 -70.348,-85.0383 -96.212,-138.8211c-23.514,-48.91 -41.964,-104.2613 -54.817,-164.5179c-12.467,-58.448 -18.639,-116.048 -20.951,-169.324z"/>
  <path id="svg_33" stroke-width="0.5" stroke="#00FF85" fill="#00FF85" d="m603.751,-319.118l-0.073,-0.123l-0.143,0l-0.547,0l-0.437,0l0.221,0.377c4.923,8.39 10.346,16.421 14.971,23.266c2.757,4.085 5.133,7.607 6.981,10.573c32.707,52.478 87.503,128.551 162.794,192.949c73.272,62.6638 148.938,99.79564 224.912,110.3271l0.25,0.0343l0.03,-0.2472l0.07,-0.4715l0.03,-0.2479l-0.24,-0.0344c-75.768,-10.50594 -151.273,-47.5377 -224.415,-110.0987c-75.201,-64.3157 -129.928,-140.3047 -162.601,-192.7297l-0.073,-0.118l-0.01,0c-1.852,-2.959 -4.207,-6.451 -6.927,-10.479l-0.207,0.14l0.207,-0.141c-4.578,-6.771 -9.927,-14.704 -14.793,-22.976z"/>
  <path id="svg_34" stroke-width="0.5" stroke="#00FF85" fill="#00FF85" d="m865.353,97.9828c-78.813,-25.2763 -152.422,-78.7488 -218.778,-158.9472l0.009,0l-0.338,-0.4092c-68.304,-82.6804 -112.566,-174.0174 -137.681,-236.0794c-1.403,-3.472 -3.254,-7.609 -5.387,-12.379l-0.11,-0.246c-1.275,-2.848 -2.624,-5.874 -4.002,-9.013l-0.066,-0.15l-0.163,0l-0.519,0l-0.382,0l0.153,0.35c1.407,3.217 2.785,6.301 4.088,9.206l0.259,0.579c2.072,4.631 3.864,8.638 5.222,12.01l0,0c25.135,62.126 69.448,153.552 137.834,236.3425c66.546,80.5561 140.414,134.2816 219.567,159.6651l0.24,0.0769l0.075,-0.2403l0.142,-0.4527l0.074,-0.2369l-0.237,-0.0758z"/>
  <path id="svg_35" stroke-width="0.5" stroke="#00FF85" fill="#00FF85" d="m556.747,-319.114l-0.07,-0.136l-0.152,0l-0.529,0l-0.409,0l0.186,0.364c3.826,7.483 7.888,14.635 11.437,20.877l0.379,0.668c2.361,4.159 4.405,7.761 5.999,10.809c29.619,56.826 80.194,139.802 152.877,212.3309c70.731,70.57718 145.97,114.9542 223.643,131.8739l0.243,0.0529l0.054,-0.2423l0.104,-0.4621l0.055,-0.2455l-0.246,-0.0536c-77.463,-16.8758 -152.546,-61.14631 -223.16,-131.6073c-72.587,-72.4419 -123.105,-155.3229 -152.702,-212.0949c-1.683,-3.23 -3.866,-7.072 -6.396,-11.512c-3.512,-6.177 -7.521,-13.235 -11.313,-20.622z"/>
  <path id="svg_36" stroke-width="0.5" stroke="#00FF85" fill="#00FF85" d="m568.338,-319.108l-0.071,-0.133l-0.15,0l-0.529,0l-0.414,0l0.193,0.367c4.185,7.946 8.701,15.542 12.609,22.114c2.587,4.348 4.812,8.097 6.537,11.251c30.432,55.751 82.12,137.001 155.532,207.4923c71.429,68.59649 146.83,111.1339 224.116,126.4213l0.243,0.0482l0.05,-0.2435l0.094,-0.462l0.051,-0.2465l-0.247,-0.0488c-77.076,-15.2457 -152.319,-57.6876 -223.631,-126.1688c-73.314,-70.4052 -124.945,-151.5702 -155.344,-207.2582l-0.071,-0.13l-0.019,0c-1.628,-2.977 -3.698,-6.462 -6.076,-10.467l-0.409,-0.689l-0.215,0.128l0.215,-0.128c-3.871,-6.507 -8.323,-14.007 -12.464,-21.847z"/>
  <path id="svg_37" stroke-width="0.5" stroke="#00FF85" fill="#00FF85" d="m580.032,-319.111l-0.071,-0.13l-0.148,0l-0.538,0l-0.421,0l0.201,0.37c4.46,8.196 9.329,16.038 13.521,22.788l0.08,0.129l0.188,0.303c2.564,4.134 4.78,7.707 6.5,10.721l0.217,-0.124l-0.217,0.124c31.225,54.667 83.99,134.2 158.063,202.6544c72.091,66.6158 147.614,107.3325 224.485,121.0157l0.245,0.0436l0.045,-0.2445l0.085,-0.4621l0.045,-0.2473l-0.247,-0.044c-76.67,-13.6438 -152.035,-54.2666 -223.998,-120.7681c-73.983,-68.3687 -126.691,-147.8087 -157.883,-202.4217l-0.217,0.124l0.217,-0.124c-1.777,-3.107 -4.064,-6.798 -6.707,-11.059l-0.144,-0.232c-4.131,-6.662 -8.909,-14.369 -13.301,-22.416z"/>
  <path id="svg_38" stroke-width="0.5" stroke="#00FF85" fill="#00FF85" d="m933.992,65.606c-77.819,-18.5147 -152.701,-64.62938 -222.567,-137.0834l0,-0.0002c-71.823,-74.4874 -121.181,-159.0744 -149.938,-216.9214c-1.601,-3.227 -3.672,-7.04 -6.07,-11.453l-0.155,-0.286l-0.22,0.12l0.22,-0.12c-3.115,-5.724 -6.625,-12.189 -10.002,-18.974l-0.069,-0.138l-0.155,0l-0.529,0l-0.403,0l0.179,0.361c3.411,6.879 6.972,13.427 10.125,19.216c2.464,4.528 4.585,8.427 6.207,11.703l0,0.001c28.779,57.901 78.182,142.584 150.101,217.1591c69.984,72.57676 145.025,118.7933 223.047,137.3643l0.241,0.0575l0.059,-0.2412l0.114,-0.462l0.06,-0.2445l-0.245,-0.0582z"/>
  <path id="svg_39" stroke-width="0.5" stroke="#00FF85" fill="#00FF85" d="m695.57,-68.3281c69.058,74.40767 143.694,122.358 221.812,142.535l0.24,0.062l-0.06,0.2407l-0.113,0.4527l-0.061,0.2443l-0.244,-0.063c-78.343,-20.2411 -153.156,-68.31609 -222.347,-142.883c-71.097,-76.6316 -119.301,-163.0116 -147.211,-221.9786m147.984,221.3899l-147.759,-221.4969m147.759,221.4969l0,-0.0095l-0.067,-0.0719c-71.012,-76.5335 -119.161,-162.8175 -147.05,-221.7305l-0.226,0.107l147.343,221.7049zm-147.984,-221.3899l0.225,-0.107m-0.225,0.107c0,0 0,0 0,0l0.225,-0.107m-0.225,0.107c-1.584,-3.333 -3.64,-7.318 -6.038,-11.93l0.222,-0.115c2.398,4.611 4.456,8.6 6.041,11.938m-14.754,-29.156l0.225,-0.109c0.017,0.036 0.035,0.072 0.052,0.109l-0.277,0zm0,0l0,0.25l0.121,0c-0.041,-0.084 -0.081,-0.167 -0.121,-0.25zm384.149,393.8825l-0.242,-0.0607l0,-0.0019c0.081,0.0209 0.162,0.0418 0.242,0.0626zm0,0l0.063,-0.242c-0.001,-0.0002 -0.001,-0.0003 -0.002,-0.0005l-0.061,0.2425zm-374.808,-376.9965l-0.222,0.115l0.222,-0.115l0,0z"/>
  <path id="svg_40" stroke-width="0.5" stroke="#00FF85" fill="#00FF85" d="m521.102,-294.291c26.089,61.079 71.743,150.836 141.083,231.5704c67.472,78.5565 141.699,130.3859 220.607,154.0428l0.241,0.0723l0.071,-0.2417l0.132,-0.4527l0.069,-0.2382l-0.237,-0.0713c-78.688,-23.5783 -152.741,-75.2807 -220.094,-153.6684l0,-0.0095l-0.06,-0.0702c-69.258,-80.6345 -114.859,-170.2935 -140.927,-231.3185c-1.484,-3.475 -3.431,-7.61 -5.687,-12.399c-1.765,-3.743 -3.671,-7.787 -5.586,-12.019l-0.067,-0.147l-0.161,0l-0.519,0l-0.388,0l0.16,0.353c1.955,4.312 3.891,8.425 5.684,12.225c2.257,4.791 4.199,8.917 5.679,12.372zm0,0l0.23,-0.098l-0.229,0.098c0,0 -0.001,0 -0.001,0zm361.762,385.3737l-0.24,-0.0701l0,-0.0018c0.08,0.024 0.16,0.048 0.24,0.0719zm0,0l0.071,-0.2395c0,-0.0001 -0.001,-0.0003 -0.001,-0.0005l-0.07,0.24zm-372.897,-410.0737l0.274,0c-0.015,-0.034 -0.031,-0.069 -0.047,-0.103l-0.227,0.103zm0,0l0,0.25l0.113,0c-0.038,-0.083 -0.076,-0.166 -0.113,-0.25z"/>
  <path id="svg_41" stroke-width="0.5" stroke="#00FF85" fill="#00FF85" d="m900.385,82.4496c-78.303,-21.84 -152.551,-71.5397 -220.705,-147.7422l0.018,0l-0.371,-0.4165c-70.163,-78.5789 -117.058,-166.5609 -144.05,-226.5289c-1.532,-3.409 -3.545,-7.478 -5.876,-12.182c-2.237,-4.517 -4.691,-9.475 -7.125,-14.677l-0.067,-0.144l-0.159,0l-0.519,0l-0.394,0l0.167,0.356c2.341,4.997 4.698,9.775 6.855,14.147l0.369,0.747l0,0l0.037,0.074c2.307,4.666 4.302,8.701 5.821,12.073c27.014,60.032 73.962,148.101 144.209,226.7791c68.359,76.557 142.889,126.5091 221.533,148.4487l0.243,0.0677l0.066,-0.2431l0.123,-0.4526l0.064,-0.2395l-0.239,-0.0667z"/>
  <path id="svg_42" stroke-width="0.5" stroke="#00FF85" fill="#00FF85" d="m606.058,-296.099l0,-0.001c-4.409,-6.799 -9.54,-14.742 -14.228,-23.023l-0.071,-0.127l-0.146,0l-0.538,0l-0.428,0l0.21,0.373c4.698,8.328 9.862,16.311 14.285,23.15l0.1,0.154l0.21,-0.136l-0.21,0.136c2.701,4.169 5.029,7.767 6.839,10.798c31.981,53.573 85.775,131.381 160.49,197.8067c72.705,64.6351 148.314,103.5499 224.751,115.6479l0.245,0.0388l0.041,-0.2454l0.075,-0.4621l0.041,-0.248l-0.249,-0.0392c-76.226,-12.0607 -151.675,-50.8833 -224.26,-115.4146c-74.616,-66.3421 -128.352,-144.0561 -160.299,-197.5751c-1.683,-2.83 -3.822,-6.138 -6.276,-9.934l-0.582,-0.899z"/>
  <path id="svg_43" stroke-width="0.5" stroke="#00FF85" fill="#00FF85" d="m638.32,-285.841l0.01,0l-0.252,-0.386c-1.9,-2.919 -4.329,-6.374 -7.142,-10.371c-4.673,-6.639 -10.134,-14.403 -15.123,-22.524l-0.073,-0.119l-0.14,0l-0.557,0l-0.446,0l0.233,0.381c5.024,8.206 10.536,16.045 15.243,22.74l0.058,0.083l0,0c2.814,3.99 5.228,7.437 7.122,10.346c33.406,51.375 89.156,125.722 164.986,188.1017c73.8,60.702 149.486,96.05081 224.971,105.04416l0.25,0.02954l0.03,-0.24797l0.05,-0.47148l0.03,-0.24845l-0.25,-0.02961c-75.268,-8.97002 -150.791,-44.22989 -224.462,-104.83009c-75.548,-62.1418 -131.138,-136.1898 -164.538,-187.4978z"/>
 </g>
</svg>