<svg width="27.697021" height="27.398212" viewBox="0 0 27.697 27.3982" fill="none" xmlns="http://www.w3.org/2000/svg" xmlns:xlink="http://www.w3.org/1999/xlink">
	<desc>
			Created with Pixso.
	</desc>
	<defs/>
	<path id="Fill 1" d="M0 13.6993C0 21.2527 6.2124 27.3982 13.8478 27.3982C21.4845 27.3982 27.6969 21.2527 27.6969 13.6993C27.6969 6.14591 21.4845 0.000362396 13.8478 0.000362396C6.2124 0.000362396 0 6.14591 0 13.6993ZM1.21741 13.6993C1.21741 6.80948 6.88318 1.20466 13.8478 1.20466C20.8125 1.20466 26.4795 6.80948 26.4795 13.6993C26.4795 20.5891 20.8125 26.1939 13.8478 26.1939C6.88318 26.1939 1.21741 20.5891 1.21741 13.6993Z" clip-rule="evenodd" fill="#007397" fill-opacity="1.000000" fill-rule="evenodd"/>
	<path id="Fill 3" d="M5.58057 13.6993C5.58057 21.2527 9.2887 27.3982 13.8479 27.3982C18.4058 27.3982 22.1128 21.2527 22.1128 13.6993C22.1128 6.14591 18.4058 0.000362396 13.8479 0.000362396C9.2887 0.000362396 5.58057 6.14591 5.58057 13.6993ZM6.79797 13.6993C6.79797 6.80948 9.96069 1.20466 13.8479 1.20466C17.7338 1.20466 20.8954 6.80948 20.8954 13.6993C20.8954 20.5891 17.7338 26.1939 13.8479 26.1939C9.96069 26.1939 6.79797 20.5891 6.79797 13.6993Z" clip-rule="evenodd" fill="#007397" fill-opacity="1.000000" fill-rule="evenodd"/>
	<path id="Fill 5" d="M13.2391 26.7957C13.2391 27.1293 13.5118 27.3978 13.8478 27.3978C21.4845 27.3978 27.6969 21.2523 27.6969 13.6989C27.6969 6.14555 21.4845 0 13.8478 0C13.5118 0 13.2391 0.269764 13.2391 0.60215L13.2391 26.7957ZM14.4565 26.1803L14.4565 1.21875C21.14 1.53428 26.4795 7.01144 26.4795 13.6989C26.4795 20.3876 21.14 25.8648 14.4565 26.1803Z" clip-rule="evenodd" fill="#007397" fill-opacity="1.000000" fill-rule="evenodd"/>
	<path id="Fill 8" d="M1.46826 18.9175L26.224 18.9175C26.4772 18.9175 26.7036 18.7622 26.7937 18.5285C27.3927 16.9593 27.697 15.3347 27.697 13.6993C27.697 12.0651 27.3927 10.4392 26.7937 8.86884C26.7036 8.6352 26.4772 8.47985 26.224 8.47985L1.47192 8.47985C1.21875 8.47985 0.99231 8.634 0.902222 8.86884C0.303223 10.4344 0.00012207 12.059 0.00012207 13.6993C0.00012207 15.3359 0.302002 16.9605 0.89856 18.5273C0.987427 18.7622 1.21509 18.9175 1.46826 18.9175ZM25.7966 17.7132L1.89685 17.7132C1.44519 16.4041 1.21753 15.0553 1.21753 13.6993C1.21753 12.3408 1.44641 10.992 1.89929 9.68415L25.7954 9.68415C26.2495 10.9956 26.4796 12.3444 26.4796 13.6993C26.4796 15.0541 26.2495 16.4029 25.7966 17.7132Z" clip-rule="evenodd" fill="#007397" fill-opacity="1.000000" fill-rule="evenodd"/>
</svg>
