<svg width="1499" height="177" viewBox="0 0 1499 177" fill="none" xmlns="http://www.w3.org/2000/svg">
<g clip-path="url(#clip0_348_528)">
<path d="M1297.77 88.6565L1298.12 88.3029L1297.77 87.9494L1210.32 0.5H1284.46L1372.26 88.3029L1284.46 176.106H1210.32L1297.77 88.6565Z" stroke="#00FF85"/>
<path d="M1423.37 88.6565L1423.72 88.3029L1423.37 87.9494L1335.92 0.5H1410.06L1497.86 88.3029L1410.06 176.106H1335.92L1423.37 88.6565Z" stroke="#00FF85"/>
<path d="M331.253 88.6565L331.606 88.3029L331.253 87.9494L243.804 0.5H317.942L405.745 88.3029L317.942 176.106H243.804L331.253 88.6565Z" stroke="#00FF85"/>
<path d="M210.279 88.6565L210.633 88.3029L210.279 87.9494L122.83 0.5H196.969L284.771 88.3029L196.969 176.106H122.83L210.279 88.6565Z" stroke="#00FF85"/>
<path d="M89.3058 88.6565L89.6594 88.3029L89.3058 87.9494L1.85652 0.5H75.9951L163.798 88.3029L75.9951 176.106H1.85651L89.3058 88.6565Z" stroke="#00FF85"/>
</g>
<defs>
<clipPath id="clip0_348_528">
<rect width="1499" height="177" fill="white"/>
</clipPath>
</defs>
</svg>
