<svg width="50" height="146" viewBox="0 0 50 146" fill="none" xmlns="http://www.w3.org/2000/svg">
<path d="M2.00001 142.898C2.16668 142.898 2.31251 142.918 2.43751 142.96C2.56251 142.96 2.70835 142.96 2.87501 142.96C2.95835 143.21 3.04168 143.481 3.12501 143.773C3.20835 144.023 3.25001 144.273 3.25001 144.523C3.12501 144.773 2.97918 145.002 2.81251 145.21C2.60418 145.418 2.35418 145.523 2.06252 145.523C1.81252 145.523 1.60418 145.46 1.43751 145.335C1.27085 145.21 1.08335 145.106 0.875015 145.023C0.791682 144.773 0.750015 144.585 0.750015 144.46C0.750015 144.127 0.854182 143.835 1.06251 143.585C1.22918 143.335 1.41668 143.106 1.62501 142.898L2.00001 142.898ZM7.12501 142.648C7.33335 142.731 7.52085 142.793 7.68751 142.835C7.81251 142.877 7.97918 142.898 8.18751 142.898C8.31251 143.106 8.43751 143.314 8.56251 143.523C8.64585 143.731 8.68751 143.96 8.68751 144.21C8.68751 144.543 8.62501 144.793 8.50001 144.96C8.33335 145.127 8.14585 145.252 7.93751 145.335C7.72918 145.377 7.52085 145.418 7.31252 145.46C7.06252 145.46 6.83335 145.481 6.62502 145.523C6.54168 145.273 6.43751 145.064 6.31251 144.898C6.18751 144.689 6.12501 144.46 6.12501 144.21C6.29168 143.918 6.43751 143.648 6.56251 143.398C6.64585 143.106 6.83335 142.856 7.12501 142.648ZM13.3125 142.96C13.6875 142.96 14 143.085 14.25 143.335C14.375 143.668 14.4375 143.981 14.4375 144.273L14.4375 144.648C14.2708 144.856 14.1042 145.043 13.9375 145.21C13.7708 145.377 13.5625 145.46 13.3125 145.46C13.2292 145.46 13.125 145.439 13 145.398C12.875 145.356 12.7708 145.314 12.6875 145.273C12.6042 145.064 12.5208 144.856 12.4375 144.648C12.3125 144.439 12.25 144.231 12.25 144.023C12.25 143.814 12.3125 143.648 12.4375 143.523C12.5625 143.356 12.6667 143.168 12.75 142.96L13.3125 142.96ZM18.5625 143.085C19.0208 143.085 19.375 143.127 19.625 143.21C19.875 143.252 20.1875 143.377 20.5625 143.585C20.5208 143.918 20.5208 144.189 20.5625 144.398C20.5625 144.606 20.5 144.877 20.375 145.21C20.125 145.21 19.8958 145.252 19.6875 145.335C19.4375 145.418 19.2083 145.46 19 145.46L18.5625 145.46C18.4792 145.293 18.3958 145.127 18.3125 144.96C18.2292 144.793 18.1875 144.627 18.1875 144.46C18.1875 144.168 18.25 143.939 18.375 143.773C18.5 143.564 18.5625 143.335 18.5625 143.085ZM25.25 143.085C25.4583 143.085 25.6458 143.168 25.8125 143.335C25.9792 143.46 26.1667 143.564 26.375 143.648C26.4583 143.981 26.5 144.252 26.5 144.46C26.5 144.793 26.375 145.085 26.125 145.335C25.8333 145.585 25.5208 145.71 25.1875 145.71C24.9792 145.71 24.8125 145.648 24.6875 145.523C24.5208 145.398 24.3958 145.252 24.3125 145.085C24.1875 144.918 24.125 144.71 24.125 144.46C24.125 144.168 24.2292 143.856 24.4375 143.523C24.6042 143.481 24.7292 143.398 24.8125 143.273C24.8958 143.148 25.0417 143.085 25.25 143.085ZM30.9375 143.023C31.3125 143.023 31.6875 143.168 32.0625 143.46C32.1875 143.71 32.25 143.981 32.25 144.273C32.25 144.731 32.1042 145.106 31.8125 145.398C31.6458 145.481 31.3958 145.523 31.0625 145.523C30.8542 145.523 30.6042 145.46 30.3125 145.335C29.9792 145.168 29.8125 144.939 29.8125 144.648C29.8125 144.564 29.8333 144.502 29.875 144.46C29.875 144.418 29.875 144.377 29.875 144.335L29.625 144.148C29.8333 143.939 29.9792 143.793 30.0625 143.71C30.1458 143.585 30.2292 143.398 30.3125 143.148C30.5625 143.064 30.7708 143.023 30.9375 143.023ZM37.1875 142.71C37.3542 143.002 37.5 143.273 37.625 143.523C37.75 143.773 37.8125 144.064 37.8125 144.398L37.8125 144.96C37.6458 145.168 37.4792 145.356 37.3125 145.523C37.1458 145.689 36.9583 145.814 36.75 145.898C36.4583 145.731 36.2083 145.564 36 145.398C35.7917 145.189 35.5625 145.002 35.3125 144.835C35.3542 144.793 35.4167 144.689 35.5 144.523C35.5 144.439 35.5 144.377 35.5 144.335C35.4583 144.252 35.4375 144.168 35.4375 144.085C35.4375 143.96 35.4583 143.856 35.5 143.773C35.8333 143.648 36.0208 143.418 36.0625 143.085C36.3542 143.085 36.5625 143.064 36.6875 143.023C36.7708 142.898 36.9375 142.793 37.1875 142.71ZM42.5625 143.085C42.8542 143.085 43.0625 143.252 43.1875 143.585C43.3125 143.877 43.375 144.127 43.375 144.335C43.375 144.543 43.375 144.731 43.375 144.898C43.3333 145.023 43.3125 145.168 43.3125 145.335C43.1042 145.377 42.9167 145.439 42.75 145.523C42.5833 145.606 42.3958 145.648 42.1875 145.648C41.8125 145.439 41.5833 145.273 41.5 145.148C41.4167 145.023 41.25 144.835 41 144.585C41.0833 144.418 41.1667 144.273 41.25 144.148C41.2917 144.023 41.3125 143.856 41.3125 143.648C41.5208 143.564 41.7292 143.46 41.9375 143.335C42.1458 143.168 42.3542 143.085 42.5625 143.085ZM47.6875 142.96C47.8542 143.043 48 143.168 48.125 143.335C48.2917 143.502 48.4792 143.585 48.6875 143.585C48.7708 143.918 48.8125 144.168 48.8125 144.335C48.8125 144.668 48.7083 144.96 48.5 145.21C48.3333 145.418 48.125 145.606 47.875 145.773C47.6667 145.689 47.5 145.648 47.375 145.648C47.2083 145.648 47.0417 145.648 46.875 145.648C46.7917 145.439 46.6875 145.231 46.5625 145.023C46.4375 144.814 46.375 144.606 46.375 144.398C46.375 144.231 46.4375 144.085 46.5625 143.96C46.6458 143.835 46.7083 143.71 46.75 143.585C46.9583 143.46 47.1458 143.398 47.3125 143.398C47.4792 143.356 47.6042 143.21 47.6875 142.96ZM2.62501 91.9125L3.62501 92.6C3.70835 92.85 3.75001 93.0583 3.75001 93.225C3.75001 93.3917 3.72918 93.5583 3.68751 93.725C3.64585 93.8917 3.62501 94.0792 3.62501 94.2875C3.54168 94.2875 3.31251 94.35 2.93751 94.475C2.56251 94.6 2.35418 94.6625 2.31251 94.6625C2.06251 94.6625 1.89585 94.5792 1.81251 94.4125C1.68751 94.2458 1.54168 94.1 1.37501 93.975C1.33335 93.85 1.31251 93.7458 1.31251 93.6625C1.27085 93.5375 1.25001 93.4125 1.25001 93.2875C1.25001 93.0792 1.29168 92.85 1.37501 92.6L2.62501 91.9125ZM8.93751 91.9125C9.10418 91.9542 9.35418 91.975 9.68751 91.975C10.1458 91.975 10.4792 92.1833 10.6875 92.6C10.8542 92.975 10.9792 93.35 11.0625 93.725C10.9792 93.975 10.875 94.1417 10.75 94.225C10.625 94.2667 10.4792 94.3917 10.3125 94.6C10.1042 94.6 9.93751 94.6417 9.81251 94.725C9.64585 94.7667 9.45835 94.7875 9.25001 94.7875C8.87501 94.4125 8.45835 94.1417 8.00001 93.975C8.08335 93.8917 8.14585 93.8292 8.18751 93.7875C8.22918 93.7458 8.29168 93.6625 8.37501 93.5375C8.37501 93.3292 8.31251 93.1208 8.18751 92.9125L8.93751 91.9125ZM17.125 91.85C17.4583 91.9333 17.7917 92.0583 18.125 92.225C18.4583 92.3917 18.625 92.7042 18.625 93.1625C18.625 93.4542 18.5417 93.7042 18.375 93.9125C18.1667 94.1208 17.9792 94.35 17.8125 94.6C17.5208 94.5167 17.3125 94.4958 17.1875 94.5375C17.0625 94.5792 16.8125 94.5167 16.4375 94.35C16.3958 94.0583 16.2917 93.9125 16.125 93.9125C15.9167 93.8708 15.8333 93.6833 15.875 93.35C15.875 93.3083 15.8958 93.2667 15.9375 93.225C15.9375 93.1833 15.9375 93.1208 15.9375 93.0375C15.9375 92.9125 15.8958 92.8083 15.8125 92.725L16.1875 92.1C16.2708 92.1 16.3958 92.1417 16.5625 92.225C16.6458 92.1833 16.75 92.1208 16.875 92.0375C16.9583 91.9542 17.0417 91.8917 17.125 91.85ZM24 91.9125C24.0833 91.9125 24.1667 91.9125 24.25 91.9125C24.3333 91.8708 24.4167 91.85 24.5 91.85C24.7917 92.0583 25.0417 92.2458 25.25 92.4125C25.4167 92.5375 25.6042 92.6417 25.8125 92.725C25.8542 92.85 25.875 93.0375 25.875 93.2875C25.875 93.7875 25.7083 94.1417 25.375 94.35C25 94.5167 24.625 94.6625 24.25 94.7875C24.0417 94.5792 23.8125 94.3708 23.5625 94.1625C23.3125 93.9542 23.1875 93.6833 23.1875 93.35C23.1875 93.1833 23.2292 92.9333 23.3125 92.6C23.3542 92.4333 23.3958 92.2875 23.4375 92.1625C23.4792 92.0792 23.5417 91.9958 23.625 91.9125C23.7917 91.7458 23.9167 91.7458 24 91.9125ZM32.125 91.9125C32.3333 91.9958 32.4792 92.1417 32.5625 92.35C32.6458 92.5167 32.7917 92.6417 33 92.725L33 93.475C33 93.8917 32.8958 94.1833 32.6875 94.35C32.4375 94.475 32.1458 94.6417 31.8125 94.85C31.5208 94.725 31.2292 94.5375 30.9375 94.2875C30.6458 93.9958 30.5 93.6833 30.5 93.35C30.5 93.1417 30.5625 92.9333 30.6875 92.725L30.625 92.475C30.875 92.3917 31.125 92.2875 31.375 92.1625C31.5833 92.0375 31.8333 91.9542 32.125 91.9125ZM39.0625 91.975C39.2292 91.975 39.375 91.9958 39.5 92.0375C39.625 92.0375 39.7708 92.0167 39.9375 91.975C40.0208 92.1833 40.1458 92.3917 40.3125 92.6C40.4792 92.8083 40.5625 93.0167 40.5625 93.225C40.5625 93.6417 40.4792 93.9542 40.3125 94.1625C40.1458 94.3708 39.9167 94.6 39.625 94.85L39.375 94.85C39.125 94.85 38.9583 94.8708 38.875 94.9125C38.7917 94.9125 38.7292 94.9125 38.6875 94.9125C38.6042 94.8708 38.5417 94.7875 38.5 94.6625C38.4167 94.5375 38.2917 94.3292 38.125 94.0375C38.0833 93.9542 38.0417 93.8708 38 93.7875C37.9583 93.6625 37.9375 93.5583 37.9375 93.475C37.9375 92.975 38.1458 92.5167 38.5625 92.1C38.8125 92.0167 38.9792 91.975 39.0625 91.975ZM7.50001 124.725C7.83335 124.725 8.10418 124.85 8.31251 125.1C8.47918 125.308 8.68751 125.475 8.93751 125.6C8.81251 126.058 8.75001 126.496 8.75001 126.913C8.29168 127.288 7.89585 127.475 7.56251 127.475C7.35418 127.475 7.16668 127.433 7.00001 127.35C6.83335 127.225 6.68751 127.1 6.56251 126.975C6.52085 126.767 6.47918 126.579 6.43751 126.413C6.35418 126.246 6.31251 126.058 6.31251 125.85C6.31251 125.642 6.37501 125.475 6.50001 125.35C6.58335 125.183 6.66668 125.017 6.75001 124.85C6.87501 124.85 7.00001 124.829 7.12501 124.788C7.25001 124.746 7.37501 124.725 7.50001 124.725ZM11.9375 120.538C12.1875 120.579 12.4167 120.6 12.625 120.6C12.8333 120.558 13.0208 120.642 13.1875 120.85C13.2708 121.058 13.3333 121.267 13.375 121.475C13.4167 121.642 13.4792 121.829 13.5625 122.038L13.375 122.975C13.2083 123.017 13.0417 123.079 12.875 123.163C12.7083 123.246 12.5417 123.288 12.375 123.288C12.125 123.288 11.8958 123.225 11.6875 123.1C11.4792 122.933 11.2708 122.788 11.0625 122.663C11.0208 122.538 10.9792 122.413 10.9375 122.288C10.8958 122.121 10.875 121.975 10.875 121.85C10.875 121.725 10.8958 121.621 10.9375 121.538C10.9792 121.413 11.0208 121.288 11.0625 121.163C11.1875 121.079 11.3333 120.996 11.5 120.913C11.6667 120.788 11.8125 120.663 11.9375 120.538ZM2.81251 129.413C3.06251 129.496 3.31251 129.621 3.56251 129.788C3.77085 129.913 4.02085 129.975 4.31251 129.975C4.52085 130.308 4.62501 130.621 4.62501 130.913C4.62501 131.079 4.60418 131.246 4.56251 131.413C4.52085 131.579 4.47918 131.746 4.43751 131.913C4.22918 131.996 4.02085 132.1 3.81251 132.225C3.60418 132.35 3.37501 132.433 3.12501 132.475C2.91668 132.392 2.75001 132.288 2.62501 132.163C2.50001 131.996 2.33335 131.829 2.12501 131.663L2.12501 130.725C2.12501 130.475 2.22918 130.246 2.43751 130.038C2.60418 129.829 2.72918 129.621 2.81251 129.413ZM17 116.538C17.375 116.621 17.6667 116.704 17.875 116.788C18.0833 116.829 18.3333 116.975 18.625 117.225L18.625 117.725C18.625 117.808 18.6458 117.871 18.6875 117.913C18.6875 117.954 18.6875 118.017 18.6875 118.1C18.6875 118.35 18.6458 118.538 18.5625 118.663C18.4792 118.746 18.375 118.829 18.25 118.913C18.125 118.954 18 119.017 17.875 119.1C17.7083 119.142 17.5833 119.246 17.5 119.413C17.25 119.329 17.0208 119.225 16.8125 119.1C16.5625 118.933 16.3333 118.767 16.125 118.6C16.0833 118.475 16.0417 118.35 16 118.225C15.9583 118.1 15.9375 117.975 15.9375 117.85C15.9375 117.683 15.9792 117.517 16.0625 117.35C16.1042 117.183 16.1458 117.017 16.1875 116.85C16.5208 116.85 16.7917 116.746 17 116.538ZM22.6875 112.475C22.9375 112.475 23.2083 112.663 23.5 113.038C23.75 113.413 23.875 113.704 23.875 113.913C23.875 114.163 23.8125 114.413 23.6875 114.663C23.5208 114.871 23.3958 115.079 23.3125 115.288C22.6458 115.288 21.9792 115.058 21.3125 114.6C21.3125 114.1 21.2292 113.767 21.0625 113.6C21.2708 113.392 21.5208 113.163 21.8125 112.913C22.0625 112.621 22.3542 112.475 22.6875 112.475ZM28.1875 108.413C28.3958 108.496 28.5417 108.642 28.625 108.85C28.7083 109.017 28.8542 109.142 29.0625 109.225L29.0625 109.788C29.0625 109.996 29.0417 110.163 29 110.288C28.9167 110.413 28.8333 110.558 28.75 110.725C28.625 110.808 28.5208 110.892 28.4375 110.975C28.3125 111.017 28.2083 111.121 28.125 111.288L27.75 111.288C27.4583 111.121 27.1875 110.913 26.9375 110.663C26.6458 110.413 26.5 110.121 26.5 109.788C26.5 109.621 26.5417 109.496 26.625 109.413C26.7083 109.329 26.7083 109.183 26.625 108.975C27.125 108.642 27.6458 108.454 28.1875 108.413ZM32.3125 104.788C32.4792 104.704 32.625 104.663 32.75 104.663C32.9583 104.663 33.25 104.788 33.625 105.038C34 105.288 34.1667 105.538 34.125 105.788L34.0625 106.163C33.8542 106.579 33.6667 106.892 33.5 107.1C33.2917 107.267 32.9792 107.35 32.5625 107.35C32.2292 107.142 31.9583 106.975 31.75 106.85C31.5417 106.725 31.3958 106.454 31.3125 106.038C31.3958 105.829 31.5 105.558 31.625 105.225C31.75 104.85 31.9792 104.704 32.3125 104.788ZM37.125 100.725C37.4583 100.85 37.7917 100.913 38.125 100.913C38.2083 101.121 38.3542 101.308 38.5625 101.475C38.7708 101.642 38.875 101.871 38.875 102.163C38.875 102.371 38.8333 102.538 38.75 102.663C38.6667 102.788 38.5833 102.954 38.5 103.163C38.2917 103.246 38.125 103.35 38 103.475C37.8333 103.558 37.6458 103.683 37.4375 103.85C37.3125 103.683 37.1875 103.538 37.0625 103.413C36.8958 103.246 36.7917 103.058 36.75 102.85C36.5417 102.517 36.4375 102.204 36.4375 101.913C36.4375 101.621 36.5208 101.413 36.6875 101.288C36.8125 101.121 36.9583 100.933 37.125 100.725ZM46.75 92.2875C46.9583 92.2875 47.1458 92.35 47.3125 92.475C47.4792 92.5583 47.6667 92.6208 47.875 92.6625C47.9583 92.8292 48.0417 92.9958 48.125 93.1625C48.25 93.3292 48.3125 93.5167 48.3125 93.725C48.3125 94.6 47.7917 95.0375 46.75 95.0375C46.2083 95.0375 45.9167 94.8083 45.875 94.35C45.7917 93.85 45.7083 93.4125 45.625 93.0375C45.8333 92.9125 46 92.7667 46.125 92.6C46.25 92.3917 46.4583 92.2875 46.75 92.2875ZM42.4375 96.975C42.6458 96.975 42.8333 96.9958 43 97.0375C43.1667 97.0792 43.3542 97.1208 43.5625 97.1625C43.5625 97.4125 43.625 97.5792 43.75 97.6625C43.8333 97.7458 43.875 97.8917 43.875 98.1C43.875 98.2667 43.8333 98.475 43.75 98.725C43.6667 98.975 43.5833 99.1833 43.5 99.35C43.2083 99.475 42.875 99.5375 42.5 99.5375C42.0833 99.5375 41.7917 99.3917 41.625 99.1C41.4167 98.7667 41.3125 98.4333 41.3125 98.1C41.3125 97.9333 41.3542 97.725 41.4375 97.475L41.9375 96.975L42.4375 96.975ZM10.9375 129.413C11.1458 129.663 11.3542 129.913 11.5625 130.163C11.7708 130.413 11.875 130.704 11.875 131.038C11.875 131.246 11.8125 131.433 11.6875 131.6C11.5625 131.725 11.4792 131.892 11.4375 132.1C11.2292 132.1 11.0625 132.121 10.9375 132.163C10.7708 132.204 10.5833 132.246 10.375 132.288L9.43751 131.85C9.43751 131.642 9.41668 131.433 9.37501 131.225C9.33335 131.017 9.31251 130.808 9.31251 130.6L9.31251 130.35C9.43751 130.225 9.56251 130.1 9.68751 129.975C9.77085 129.808 9.87501 129.663 10 129.538C10.0833 129.538 10.1875 129.558 10.3125 129.6C10.4375 129.6 10.5417 129.6 10.625 129.6C10.7083 129.558 10.7708 129.538 10.8125 129.538C10.8125 129.496 10.8542 129.454 10.9375 129.413ZM18.5625 129.288C18.6458 129.454 18.7292 129.6 18.8125 129.725C18.8958 129.808 19.0417 129.871 19.25 129.913L19.25 130.538L19.25 131.663C19.1667 131.746 19.0208 131.829 18.8125 131.913C18.6042 131.954 18.5 132.017 18.5 132.1C18.5 132.142 18.3333 132.121 18 132.038C17.8333 131.996 17.6667 131.933 17.5 131.85C17.375 131.892 17.2292 131.871 17.0625 131.788C16.9375 131.704 16.8333 131.621 16.75 131.538C16.625 131.413 16.5625 131.204 16.5625 130.913C16.5625 130.746 16.5833 130.6 16.625 130.475C16.625 130.35 16.625 130.204 16.625 130.038C16.75 129.913 16.8958 129.829 17.0625 129.788C17.2292 129.746 17.3333 129.642 17.375 129.475C17.75 129.35 18.1458 129.288 18.5625 129.288ZM24 129.413C24.3333 129.454 24.6875 129.517 25.0625 129.6C25.3958 129.642 25.7292 129.767 26.0625 129.975C26.0625 130.142 26.0833 130.308 26.125 130.475C26.125 130.642 26.125 130.808 26.125 130.975C26.125 131.392 26 131.746 25.75 132.038C25.5833 132.038 25.4167 132.058 25.25 132.1C25.0833 132.142 24.8958 132.163 24.6875 132.163C24.3542 132.163 24.0625 132.017 23.8125 131.725C23.5625 131.392 23.4375 131.058 23.4375 130.725C23.4375 130.392 23.5208 130.163 23.6875 130.038C23.8125 129.871 23.9167 129.663 24 129.413ZM32.0625 129.225C32.5208 129.225 32.8542 129.308 33.0625 129.475C33.2292 129.642 33.4792 129.892 33.8125 130.225C33.8125 130.35 33.8125 130.475 33.8125 130.6C33.7708 130.683 33.7292 130.788 33.6875 130.913C33.6875 130.954 33.7292 131.058 33.8125 131.225C33.6875 131.35 33.5417 131.496 33.375 131.663C33.1667 131.829 32.9583 131.933 32.75 131.975C32.6667 131.975 32.5833 131.996 32.5 132.038C32.4167 132.038 32.3125 132.038 32.1875 132.038C32.0208 132.038 31.875 132.017 31.75 131.975C31.625 131.892 31.4792 131.85 31.3125 131.85C31.2708 131.6 31.2292 131.371 31.1875 131.163C31.1458 130.913 31.125 130.683 31.125 130.475C31.125 130.267 31.1667 130.038 31.25 129.788C31.375 129.704 31.5208 129.621 31.6875 129.538C31.8125 129.454 31.9375 129.35 32.0625 129.225ZM39.875 129.288L40.375 129.288C40.75 129.579 40.9792 129.85 41.0625 130.1C41.1042 130.35 41.125 130.704 41.125 131.163C41.125 131.288 41.1042 131.413 41.0625 131.538C41.0208 131.621 40.9792 131.704 40.9375 131.788L40.3125 131.788C40.1458 131.871 40.0417 131.913 40 131.913C39.5417 131.704 39.1875 131.538 38.9375 131.413C38.6875 131.288 38.5625 130.933 38.5625 130.35C38.5625 130.017 38.7083 129.767 39 129.6C39.25 129.392 39.5417 129.288 39.875 129.288ZM47.5 129.163C47.7083 129.288 47.9167 129.392 48.125 129.475C48.3333 129.517 48.5417 129.579 48.75 129.663C48.7917 129.829 48.8125 129.975 48.8125 130.1C48.8542 130.225 48.875 130.371 48.875 130.538C48.875 130.704 48.8542 130.871 48.8125 131.038C48.8125 131.163 48.8125 131.308 48.8125 131.475C48.6042 131.558 48.375 131.663 48.125 131.788C47.875 131.913 47.625 131.975 47.375 131.975C47.2917 131.975 47.25 131.975 47.25 131.975C47.2083 131.933 47.1458 131.913 47.0625 131.913C46.8542 131.788 46.6667 131.579 46.5 131.288C46.2917 130.954 46.1875 130.683 46.1875 130.475C46.1875 130.183 46.3333 129.892 46.625 129.6C46.875 129.308 47.1667 129.163 47.5 129.163ZM3.06251 50.9275C3.27084 51.1358 3.52084 51.365 3.81251 51.615C4.06251 51.8233 4.18751 52.0942 4.18751 52.4275C4.18751 52.6358 4.14584 52.8442 4.06251 53.0525C3.93751 53.2608 3.83334 53.4692 3.75001 53.6775C3.54168 53.6775 3.37501 53.6983 3.25001 53.74C3.08334 53.7817 2.89584 53.8025 2.68751 53.8025C2.22918 53.8025 1.97918 53.6775 1.93751 53.4275C1.89584 53.1775 1.72918 52.9692 1.43751 52.8025L1.50001 51.8025C1.83334 51.4692 2.10418 51.3025 2.31251 51.3025C2.47918 51.2608 2.72918 51.1358 3.06251 50.9275ZM2.37501 56.115C2.54168 56.115 2.70834 56.1983 2.87501 56.365C3.12501 56.49 3.35418 56.6567 3.56251 56.865C3.77084 57.0317 3.87501 57.2608 3.87501 57.5525L3.87501 58.115C3.70834 58.1983 3.52084 58.3442 3.31251 58.5525C3.10418 58.7608 2.89584 58.865 2.68751 58.865L1.87501 58.49C1.70834 58.2817 1.60418 58.0942 1.56251 57.9275C1.47918 57.7192 1.35418 57.5317 1.18751 57.365C1.31251 57.1567 1.47918 56.9067 1.68751 56.615C1.85418 56.2817 2.08334 56.115 2.37501 56.115ZM2.75001 61.1775C3.04168 61.1775 3.27084 61.2817 3.43751 61.49C3.56251 61.6983 3.70834 61.9067 3.87501 62.115C3.83334 62.3233 3.81251 62.5317 3.81251 62.74C3.81251 62.9067 3.81251 63.0942 3.81251 63.3025C3.56251 63.4275 3.39584 63.5317 3.31251 63.615C3.18751 63.6983 2.97918 63.74 2.68751 63.74C2.47918 63.6567 2.20834 63.5108 1.87501 63.3025C1.54168 63.0942 1.37501 62.8233 1.37501 62.49C1.37501 62.2817 1.43751 62.0733 1.56251 61.865C1.68751 61.6567 1.79168 61.4483 1.87501 61.24C1.91668 61.2817 2.02084 61.3442 2.18751 61.4275C2.27084 61.3442 2.35418 61.2817 2.43751 61.24C2.52084 61.1983 2.62501 61.1775 2.75001 61.1775ZM2.56251 66.615C2.77084 66.6567 2.95834 66.7192 3.12501 66.8025C3.25001 66.8442 3.41668 66.865 3.62501 66.865C3.91668 67.3233 4.06251 67.74 4.06251 68.115C3.97918 68.3233 3.89584 68.5317 3.81251 68.74C3.72918 68.9067 3.62501 69.0942 3.50001 69.3025L2.93751 69.3025C2.56251 69.3025 2.14584 69.1567 1.68751 68.865L1.31251 67.8025C1.60418 67.6358 1.83334 67.4483 2.00001 67.24C2.12501 66.99 2.31251 66.7817 2.56251 66.615ZM2.37501 72.74C2.66668 72.7817 2.93751 72.865 3.18751 72.99C3.39585 73.0733 3.62501 73.1775 3.87501 73.3025C3.95835 73.6358 4.00001 73.8858 4.00001 74.0525C4.00001 74.2608 3.89585 74.5525 3.68751 74.9275C3.43751 75.3025 3.18751 75.49 2.93751 75.49C2.72918 75.49 2.52085 75.4692 2.31251 75.4275C2.10418 75.3442 1.87501 75.3233 1.62501 75.365C1.62501 75.115 1.58335 74.8858 1.50001 74.6775C1.41668 74.4692 1.37501 74.2608 1.37501 74.0525C1.37501 73.6358 1.45835 73.365 1.62501 73.24C1.79168 73.115 2.04168 72.9483 2.37501 72.74ZM2.25001 78.4275C2.66668 78.6358 3.04168 78.74 3.37501 78.74C3.45835 78.9483 3.56251 79.2192 3.68751 79.5525C3.81251 79.8442 3.87501 80.0733 3.87501 80.24C3.87501 80.5733 3.72918 80.8442 3.43751 81.0525C3.14585 81.2192 2.85418 81.3025 2.56251 81.3025C2.22918 81.3025 1.95835 81.1983 1.75001 80.99C1.50001 80.74 1.37501 80.4483 1.37501 80.115C1.37501 79.9483 1.41668 79.74 1.50001 79.49C1.66668 79.365 1.79168 79.1983 1.87501 78.99C1.95835 78.7817 2.08335 78.5942 2.25001 78.4275ZM24.5 56.865C24.5833 56.865 24.75 56.9067 25 56.99C25.4167 57.3233 25.6458 57.5733 25.6875 57.74C25.6875 57.9067 25.7292 58.24 25.8125 58.74C25.6042 58.99 25.4375 59.1358 25.3125 59.1775C25.1458 59.1775 24.9583 59.2817 24.75 59.49C24.5417 59.4483 24.3542 59.3858 24.1875 59.3025C23.9792 59.1775 23.7708 59.0733 23.5625 58.99L23.5625 58.6775C23.5625 58.5942 23.5208 58.49 23.4375 58.365C23.3542 58.1983 23.3125 58.0108 23.3125 57.8025L23.3125 57.4275C23.5208 57.3442 23.7292 57.24 23.9375 57.115C24.1042 56.9483 24.2917 56.865 24.5 56.865ZM7.43751 78.99C7.64585 78.99 7.87501 79.0108 8.12501 79.0525C8.33335 79.0942 8.54168 79.115 8.75001 79.115C8.70835 79.24 8.68751 79.4275 8.68751 79.6775C8.68751 79.8442 8.79168 80.0317 9.00001 80.24C8.70835 80.9067 8.27085 81.4067 7.68751 81.74C7.47918 81.49 7.29168 81.2608 7.12501 81.0525C6.95835 80.8442 6.75001 80.6358 6.50001 80.4275C6.54168 80.0942 6.62501 79.8025 6.75001 79.5525C6.87501 79.3025 7.10418 79.115 7.43751 78.99ZM24.625 62.3025C24.9167 62.3025 25.1667 62.3858 25.375 62.5525C25.5417 62.6775 25.7292 62.8442 25.9375 63.0525C25.8125 63.1775 25.75 63.2608 25.75 63.3025C25.75 63.3858 25.7708 63.4483 25.8125 63.49C25.8125 63.5317 25.8125 63.5942 25.8125 63.6775C25.8125 63.9275 25.6458 64.1775 25.3125 64.4275C24.9792 64.6775 24.6875 64.8025 24.4375 64.8025C24.0625 64.8025 23.7917 64.6358 23.625 64.3025C23.4583 63.9692 23.375 63.6358 23.375 63.3025C23.375 63.0525 23.5417 62.8233 23.875 62.615C24.1667 62.4067 24.4167 62.3025 24.625 62.3025ZM12.875 78.615C13 78.6983 13.1458 78.7817 13.3125 78.865C13.4792 78.9483 13.625 79.0525 13.75 79.1775C13.7917 79.3858 13.8333 79.5733 13.875 79.74C13.9167 79.9067 13.9375 80.0942 13.9375 80.3025C13.9375 80.5942 13.8542 80.8442 13.6875 81.0525C13.5208 81.1358 13.3542 81.24 13.1875 81.365C13.0208 81.4483 12.8333 81.49 12.625 81.49C12.5417 81.49 12.375 81.4483 12.125 81.365C11.9583 81.1983 11.8333 81.0108 11.75 80.8025C11.6667 80.5942 11.5208 80.4067 11.3125 80.24C11.3958 79.9483 11.5 79.7192 11.625 79.5525C11.7083 79.3858 11.8125 79.1775 11.9375 78.9275C12.1458 78.8858 12.4583 78.7817 12.875 78.615ZM24.3125 67.99C24.6875 68.115 25.0625 68.2817 25.4375 68.49C25.8125 68.6567 26 68.9692 26 69.4275C25.9167 69.5525 25.8542 69.6983 25.8125 69.865C25.7292 69.99 25.6875 70.1358 25.6875 70.3025C25.3958 70.5525 25.0417 70.6775 24.625 70.6775C24.5 70.6775 24.3958 70.6567 24.3125 70.615C24.1875 70.5733 24.0833 70.5317 24 70.49C23.7917 70.1567 23.6458 69.9483 23.5625 69.865C23.4792 69.7817 23.3958 69.5108 23.3125 69.0525C23.4792 68.8858 23.6458 68.7192 23.8125 68.5525C23.9375 68.3442 24.1042 68.1567 24.3125 67.99ZM19.375 78.49C19.4167 78.49 19.4792 78.5317 19.5625 78.615C19.6458 78.6567 19.7292 78.7192 19.8125 78.8025L20.125 79.115L20.125 79.9275C20.125 80.0525 20.1667 80.1567 20.25 80.24C20.0833 80.4483 19.9792 80.5942 19.9375 80.6775C19.8542 80.7608 19.7708 80.9483 19.6875 81.24L18.9375 81.0525L18.6875 81.1775C18.4375 81.0108 18.2083 80.8025 18 80.5525C17.7917 80.3025 17.6875 80.0108 17.6875 79.6775C17.6875 79.3858 17.8333 79.1358 18.125 78.9275C18.2083 78.6775 18.3125 78.5525 18.4375 78.5525C18.5208 78.5108 18.8333 78.49 19.375 78.49ZM24.875 73.8025C25.125 74.0108 25.3542 74.24 25.5625 74.49C25.7708 74.74 25.875 75.0317 25.875 75.365C25.875 75.49 25.875 75.615 25.875 75.74C25.8333 75.8233 25.7917 75.9275 25.75 76.0525C25.5833 76.1358 25.4375 76.2192 25.3125 76.3025C25.1458 76.3858 24.9583 76.4275 24.75 76.4275L24.4375 76.4275L23.3125 75.865C23.3125 75.5317 23.375 75.24 23.5 74.99C23.625 74.74 23.7292 74.4483 23.8125 74.115C24.0208 74.0317 24.2083 73.99 24.375 73.99C24.5 73.99 24.6667 73.9275 24.875 73.8025ZM24.25 78.5525C24.7083 78.7608 25.0833 78.9483 25.375 79.115C25.6667 79.2817 25.8125 79.6567 25.8125 80.24L25.8125 80.865C25.4792 80.865 25.2917 80.9483 25.25 81.115C25.1667 81.2817 24.9583 81.365 24.625 81.365C24.375 81.365 24.1667 81.3025 24 81.1775C23.7917 81.0525 23.5833 80.9483 23.375 80.865L23.375 80.49C23.375 80.4067 23.375 80.3233 23.375 80.24C23.3333 80.1567 23.3125 80.0733 23.3125 79.99L23.3125 79.615L24.25 78.5525ZM29.4375 78.8025C29.7292 78.8025 30.0208 78.8442 30.3125 78.9275C30.5625 79.0108 30.8333 79.0525 31.125 79.0525C31.2083 79.2608 31.2917 79.4692 31.375 79.6775C31.4583 79.8858 31.5 80.0942 31.5 80.3025L31.5 80.9275C31.25 81.0108 31.0208 81.115 30.8125 81.24C30.6042 81.3233 30.375 81.3858 30.125 81.4275C30.0417 81.3858 29.9583 81.3442 29.875 81.3025C29.7917 81.2608 29.7083 81.2192 29.625 81.1775C29.5 81.2192 29.3333 81.24 29.125 81.24C29.0833 80.865 28.9792 80.4483 28.8125 79.99C28.8958 79.7817 29 79.5942 29.125 79.4275C29.25 79.2192 29.3542 79.0108 29.4375 78.8025ZM35.6875 78.5525C35.9792 78.5942 36.1667 78.6567 36.25 78.74C36.3333 78.8233 36.5417 78.8233 36.875 78.74C36.9167 78.9483 36.9792 79.115 37.0625 79.24C37.1458 79.365 37.2292 79.5108 37.3125 79.6775C37.2708 79.8858 37.2292 80.0733 37.1875 80.24C37.1458 80.4067 37.125 80.5942 37.125 80.8025C36.9167 80.8858 36.7292 80.99 36.5625 81.115C36.3542 81.24 36.1458 81.3025 35.9375 81.3025L35.5625 81.3025C34.9792 81.0942 34.6875 80.7192 34.6875 80.1775C34.6875 79.9692 34.7083 79.7817 34.75 79.615C34.7917 79.4067 34.8125 79.1983 34.8125 78.99C34.9792 78.9067 35.1458 78.8442 35.3125 78.8025C35.4375 78.7192 35.5625 78.6358 35.6875 78.5525ZM41.0625 78.5525C41.5208 78.6358 41.875 78.8025 42.125 79.0525C42.25 79.3858 42.3125 79.6775 42.3125 79.9275C42.3125 80.3025 42.1875 80.5942 41.9375 80.8025C41.6875 80.9692 41.3958 81.0942 41.0625 81.1775C40.6458 80.9692 40.1875 80.615 39.6875 80.115C39.8958 79.9067 39.9792 79.7192 39.9375 79.5525C39.8958 79.3858 39.9792 79.1983 40.1875 78.99C40.3958 78.9483 40.5625 78.8858 40.6875 78.8025C40.7708 78.7192 40.8958 78.6358 41.0625 78.5525ZM46.8125 78.99C47.6042 79.0317 48.2292 79.3442 48.6875 79.9275C48.5208 80.1775 48.5 80.4692 48.625 80.8025L47.6875 81.5525L47.3125 81.5525C47.1875 81.5525 47.0833 81.5525 47 81.5525C46.875 81.5108 46.75 81.49 46.625 81.49C46.4167 81.2817 46.2917 81.0525 46.25 80.8025C46.1667 80.5525 46.0208 80.3233 45.8125 80.115C46.0208 79.6983 46.2083 79.49 46.375 79.49C46.5 79.4483 46.6458 79.2817 46.8125 78.99ZM10.375 5.005C10.7083 5.21334 10.9792 5.40084 11.1875 5.5675C11.3542 5.6925 11.5833 5.90084 11.875 6.1925L11.875 6.5675C11.875 6.73417 11.875 6.88 11.875 7.005C11.8333 7.13 11.8333 7.255 11.875 7.38C11.625 7.46334 11.4375 7.60917 11.3125 7.8175C11.1458 8.02584 10.9167 8.13 10.625 8.13C10.1667 8.13 9.89584 8.02584 9.81251 7.8175C9.72918 7.5675 9.64584 7.27584 9.56251 6.9425C9.47918 6.6925 9.43751 6.48417 9.43751 6.3175C9.43751 6.23417 9.58334 6.04667 9.87501 5.755C10.125 5.42167 10.2917 5.17167 10.375 5.005ZM6.18751 9.88C6.43751 9.88 6.68751 9.98417 6.93751 10.1925C7.14584 10.3592 7.37501 10.4842 7.62501 10.5675C7.54168 10.9842 7.45834 11.4217 7.37501 11.88C7.25001 12.3383 6.89584 12.5675 6.31251 12.5675C6.14584 12.5675 6.00001 12.5467 5.87501 12.505C5.70834 12.4217 5.54168 12.38 5.37501 12.38C5.08334 11.9633 4.93751 11.5467 4.93751 11.13C4.93751 10.9217 5.00001 10.7342 5.12501 10.5675C5.20834 10.3592 5.31251 10.1508 5.43751 9.9425C5.56251 9.9425 5.68751 9.9425 5.81251 9.9425C5.93751 9.90084 6.06251 9.88 6.18751 9.88ZM2.25001 15.255C2.45834 15.2967 2.66668 15.3592 2.87501 15.4425C3.08334 15.4842 3.22918 15.63 3.31251 15.88C3.89584 15.88 4.18751 16.1717 4.18751 16.755C4.18751 17.005 4.12501 17.2758 4.00001 17.5675C3.79168 17.6508 3.60418 17.755 3.43751 17.88C3.22918 18.005 3.02084 18.0675 2.81251 18.0675C2.64584 18.0675 2.47918 18.0258 2.31251 17.9425L1.75001 17.255L1.75001 16.88C1.75001 16.5883 1.87501 16.2758 2.12501 15.9425L2.25001 15.255ZM17.5625 2.0675C18.0208 2.3175 18.25 2.71334 18.25 3.255C18.25 3.58834 18.2083 3.85917 18.125 4.0675C18 4.23417 17.8333 4.4425 17.625 4.6925L16.8125 4.6925C16.6042 4.6925 16.4375 4.67167 16.3125 4.63C16.1875 4.42167 16.0625 4.23417 15.9375 4.0675C15.7708 3.85917 15.6875 3.63 15.6875 3.38C15.6875 3.29667 15.7292 3.13 15.8125 2.88C16.2292 2.54667 16.5208 2.38 16.6875 2.38C16.8542 2.38 17.1458 2.27584 17.5625 2.0675ZM2.06251 22.4425C2.43751 22.4425 2.70834 22.6508 2.87501 23.0675C3.00001 23.4425 3.08334 23.7758 3.12501 24.0675C2.91668 24.3175 2.75001 24.5258 2.62501 24.6925C2.50001 24.8175 2.39584 25.0467 2.31251 25.38C2.18751 25.2967 2.06251 25.2342 1.93751 25.1925C1.77084 25.1092 1.62501 25.0675 1.50001 25.0675C1.29168 25.0675 1.08334 24.88 0.87501 24.505C0.666676 24.0883 0.458343 23.8175 0.25001 23.6925C0.458343 23.4842 0.645843 23.2967 0.81251 23.13C0.93751 22.9633 1.06251 22.7758 1.18751 22.5675C1.35418 22.5675 1.50001 22.5467 1.62501 22.505C1.75001 22.4633 1.89584 22.4425 2.06251 22.4425ZM24.3125 0.880003C24.9375 1.21334 25.25 1.73417 25.25 2.4425C25.25 2.52584 25.25 2.63 25.25 2.755C25.2083 2.88 25.1875 2.98417 25.1875 3.0675C24.9792 3.1925 24.7708 3.3175 24.5625 3.4425C24.3542 3.5675 24.1458 3.63 23.9375 3.63C23.6875 3.63 23.3958 3.54667 23.0625 3.38C22.8958 3.17167 22.8125 2.9425 22.8125 2.6925C22.8125 2.4425 22.75 2.21334 22.625 2.005C22.8333 1.79667 22.9792 1.48417 23.0625 1.0675L24.3125 0.880003ZM31.875 1.505C32 1.505 32.1875 1.54667 32.4375 1.63C32.7708 1.96334 32.9375 2.35917 32.9375 2.8175C32.9375 2.98417 32.9167 3.15084 32.875 3.3175C32.8333 3.4425 32.7917 3.58834 32.75 3.755C32.5833 3.83834 32.4375 3.92167 32.3125 4.005C32.1458 4.04667 31.9583 4.0675 31.75 4.0675C31.625 4.0675 31.5208 4.0675 31.4375 4.0675C31.3125 4.02584 31.1875 4.005 31.0625 4.005C30.9792 3.88 30.9167 3.755 30.875 3.63C30.8333 3.46334 30.7083 3.35917 30.5 3.3175C30.4167 3.15084 30.375 2.98417 30.375 2.8175C30.375 2.60917 30.4375 2.4425 30.5625 2.3175C30.6875 2.1925 30.7708 2.02584 30.8125 1.8175C30.9792 1.73417 31.1458 1.67167 31.3125 1.63C31.4792 1.54667 31.6667 1.505 31.875 1.505ZM4.68751 29.88C4.85418 30.1717 5.02084 30.4217 5.18751 30.63C5.35418 30.7967 5.43751 31.0467 5.43751 31.38L5.43751 31.755C5.31251 31.88 5.18751 32.005 5.06251 32.13C4.93751 32.255 4.79168 32.3592 4.62501 32.4425C4.45834 32.4842 4.33334 32.5258 4.25001 32.5675C4.12501 32.5675 4.02084 32.5675 3.93751 32.5675C3.77084 32.5675 3.64584 32.5258 3.56251 32.4425C3.43751 32.3592 3.29168 32.3175 3.12501 32.3175C2.95834 31.9842 2.87501 31.7133 2.87501 31.505C2.87501 31.2133 2.93751 30.9633 3.06251 30.755C3.18751 30.505 3.31251 30.2758 3.43751 30.0675L3.81251 30.0675C3.97918 30.0675 4.14584 30.0467 4.31251 30.005C4.43751 29.9633 4.56251 29.9217 4.68751 29.88ZM39 4.88C39.9167 5.005 40.375 5.48417 40.375 6.3175C40.375 6.73417 40.2708 7.005 40.0625 7.13C39.8125 7.255 39.5417 7.40084 39.25 7.5675C38.9167 7.48417 38.6042 7.33834 38.3125 7.13C38.0208 6.88 37.875 6.5675 37.875 6.1925C37.875 5.98417 37.9583 5.71334 38.125 5.38C38.375 5.38 38.5417 5.33834 38.625 5.255C38.6667 5.13 38.7917 5.005 39 4.88ZM8.12501 36.1925C8.58334 36.1925 8.93751 36.3592 9.18751 36.6925C9.43751 37.0258 9.56251 37.4008 9.56251 37.8175C9.56251 38.0675 9.41668 38.3175 9.12501 38.5675C8.83334 38.8175 8.58334 38.9425 8.37501 38.9425C8.08334 38.9425 7.83334 38.88 7.62501 38.755C7.41668 38.5883 7.22918 38.4008 7.06251 38.1925L7.00001 37.6925C7.08334 37.3592 7.20834 37.0258 7.37501 36.6925C7.50001 36.3592 7.75001 36.1925 8.12501 36.1925ZM45.125 10.38L45.75 10.38C45.8333 10.5883 45.8958 10.8175 45.9375 11.0675C45.9792 11.2758 46 11.505 46 11.755C46 12.0467 45.9167 12.3175 45.75 12.5675C45.5833 12.7758 45.4167 12.9842 45.25 13.1925C44.875 13.0258 44.5208 12.8383 44.1875 12.63C43.8542 12.38 43.6875 12.0258 43.6875 11.5675C43.6875 11.2342 43.8542 10.9633 44.1875 10.755C44.5208 10.505 44.8333 10.38 45.125 10.38ZM14.8125 40.63C14.9375 40.63 15.0625 40.6508 15.1875 40.6925C15.3125 40.6925 15.4375 40.6925 15.5625 40.6925C15.6875 40.9008 15.8125 41.13 15.9375 41.38C16.0208 41.63 16.0625 41.88 16.0625 42.13C16.0625 42.3383 16.0208 42.5675 15.9375 42.8175C15.7292 42.9008 15.5833 42.9842 15.5 43.0675C15.4167 43.1508 15.2708 43.255 15.0625 43.38C14.5625 43.2967 14.1458 43.1508 13.8125 42.9425C13.7292 42.7342 13.6667 42.5258 13.625 42.3175C13.5833 42.1092 13.5625 41.9008 13.5625 41.6925L13.5625 41.13C13.7708 41.005 13.9792 40.9008 14.1875 40.8175C14.3542 40.6925 14.5625 40.63 14.8125 40.63ZM21.9375 42.505C22.5625 42.505 23.0833 42.63 23.5 42.88C23.9167 43.0883 24.125 43.5467 24.125 44.255C23.9583 44.4217 23.8125 44.63 23.6875 44.88C23.5208 45.0883 23.3125 45.1925 23.0625 45.1925C22.8958 45.1925 22.75 45.1717 22.625 45.13C22.5 45.0883 22.375 45.0675 22.25 45.0675C22.125 44.8592 21.9583 44.6508 21.75 44.4425C21.5417 44.2342 21.4375 44.0258 21.4375 43.8175C21.4375 43.6092 21.5208 43.4425 21.6875 43.3175C21.8542 43.1925 21.9375 42.9217 21.9375 42.505ZM48.3125 18.0675C48.6042 18.0675 48.8125 18.1092 48.9375 18.1925C49.1458 18.3592 49.2708 18.5675 49.3125 18.8175C49.3958 19.0258 49.4792 19.2342 49.5625 19.4425C49.3958 19.6508 49.2708 19.8383 49.1875 20.005C49.1458 20.13 49.0833 20.2967 49 20.505C48.875 20.505 48.75 20.5258 48.625 20.5675C48.5417 20.5675 48.4375 20.5675 48.3125 20.5675C48.1875 20.5675 48 20.5258 47.75 20.4425C47.625 20.3592 47.4792 20.2133 47.3125 20.005C47.1042 19.7967 47 19.6092 47 19.4425C47 19.1092 47.0417 18.9217 47.125 18.88C47.2083 18.7967 47.2708 18.63 47.3125 18.38C47.6458 18.1717 47.9792 18.0675 48.3125 18.0675ZM30.9375 42.255L31.1875 42.255C31.4792 42.4633 31.7292 42.63 31.9375 42.755C32.1458 42.8383 32.25 43.0883 32.25 43.505C32.25 44.005 32.0625 44.4425 31.6875 44.8175C31.3542 44.9008 31.0625 44.9425 30.8125 44.9425C30.5625 44.9425 30.3542 44.88 30.1875 44.755C30.0208 44.5883 29.8333 44.4425 29.625 44.3175C29.7083 44.1508 29.7292 44.005 29.6875 43.88C29.6458 43.7133 29.6458 43.5258 29.6875 43.3175C29.9375 43.1092 30.0833 42.88 30.125 42.63C30.125 42.38 30.3958 42.255 30.9375 42.255ZM48.625 25.6925C48.9583 25.6925 49.2292 25.8175 49.4375 26.0675C49.6875 26.3175 49.8125 26.6092 49.8125 26.9425C49.8125 27.3175 49.7292 27.5883 49.5625 27.755C49.4375 27.9217 49.2708 28.0467 49.0625 28.13C48.8542 28.2133 48.625 28.2758 48.375 28.3175C48.125 28.3592 47.8958 28.4633 47.6875 28.63C47.6458 28.38 47.6042 28.1925 47.5625 28.0675C47.5208 27.9425 47.4792 27.8383 47.4375 27.755C47.3958 27.6717 47.3542 27.6092 47.3125 27.5675C47.2292 27.4842 47.1458 27.3383 47.0625 27.13C47.1458 26.755 47.3333 26.4217 47.625 26.13C47.875 25.8383 48.2083 25.6925 48.625 25.6925ZM38.9375 39.4425C39.1458 39.4425 39.3125 39.4842 39.4375 39.5675C39.5625 39.6508 39.7083 39.7342 39.875 39.8175C39.9167 39.9008 39.9792 40.0675 40.0625 40.3175C40.1458 40.5258 40.1875 40.6717 40.1875 40.755C40.1875 40.88 40.1667 41.005 40.125 41.13C40.0417 41.2133 40 41.3175 40 41.4425C40 41.5258 40.0208 41.5883 40.0625 41.63C40.0625 41.6717 40.0625 41.7342 40.0625 41.8175C39.7708 41.9425 39.5833 42.0258 39.5 42.0675C39.375 42.0675 39.1458 42.0675 38.8125 42.0675L38.5625 42.1925L37.5625 41.505C37.6042 41.4633 37.6667 41.3592 37.75 41.1925C37.75 41.1092 37.75 41.0258 37.75 40.9425C37.7083 40.8592 37.6875 40.7758 37.6875 40.6925C37.6875 40.5675 37.7708 40.38 37.9375 40.13C38.1042 39.8383 38.2292 39.6508 38.3125 39.5675C38.6458 39.4842 38.8542 39.4425 38.9375 39.4425ZM44.8125 33.4425C45.0625 33.4425 45.25 33.5258 45.375 33.6925C45.5 33.8592 45.6667 33.9842 45.875 34.0675C45.9583 34.2342 46.0208 34.38 46.0625 34.505C46.1042 34.63 46.125 34.7758 46.125 34.9425C46.125 35.1925 46 35.4425 45.75 35.6925C45.5 35.9008 45.3333 36.13 45.25 36.38C44.9167 36.2967 44.6042 36.2133 44.3125 36.13C44.0208 36.005 43.75 35.8175 43.5 35.5675C43.5 35.1925 43.6042 34.755 43.8125 34.255C44.0208 33.7133 44.3542 33.4425 44.8125 33.4425Z" fill="#00FF85"/>
</svg>
